<?xml version="1.0" encoding="utf-8"?>
<!-- Generator: Adobe Illustrator 16.2.0, SVG Export Plug-In . SVG Version: 6.00 Build 0)  -->
<!DOCTYPE svg PUBLIC "-//W3C//DTD SVG 1.1//EN" "http://www.w3.org/Graphics/SVG/1.1/DTD/svg11.dtd">
<svg version="1.1" id="Layer_1" xmlns="http://www.w3.org/2000/svg" xmlns:xlink="http://www.w3.org/1999/xlink" x="0px" y="0px"
	 width="622.706px" height="133.371px" viewBox="0 0 622.706 133.371" enable-background="new 0 0 622.706 133.371"
	 xml:space="preserve">
<g>
	<path fill="#FFFFFF" d="M108.591,60.795l1.293-12.941c-0.246-5.943-1.658-11.309-4.201-16.236l-6.799,9.402
		c0.939,3.131,1.318,6.514,1.035,10.041C98.626,67.23,83.935,80.337,67.104,80.337c-3.951,0-7.669-0.723-11.028-2.037l40.632-42.447
		l17.156-17.404l-12.219,6.459C93.542,14.707,80.517,8.648,65.583,9.246c-25.691,1.027-47.52,21.93-48.754,46.686
		c-1.235,24.757,18.588,43.994,44.279,42.966C83.765,97.992,103.417,81.626,108.591,60.795z M154.739,71.025
		c0.695-6.941,0.119-11.978-1.727-15.111c-1.803-3.131-4.971-4.695-9.498-4.697c-1.99,0-4.012,0.316-6.062,0.951
		c-2.012,0.635-4.031,1.588-6.063,2.857l-3.587,35.871c1.133,0.508,2.387,0.869,3.764,1.08c1.418,0.211,3.1,0.316,5.049,0.316
		c5.416,0,9.613-1.756,12.59-5.27C152.183,83.468,154.026,78.134,154.739,71.025z M204.872,108.609
		c-9.06,0-15.477-1.859-19.25-5.586c-3.734-3.725-5.178-9.818-4.33-18.285l3.334-33.332h-8.117
		c1.41,5.373,1.744,11.764,1.004,19.173c-1.139,11.387-4.957,20.57-11.453,27.555c-6.455,6.984-13.916,10.475-22.379,10.475
		c-3.557,0-6.607-0.402-9.15-1.205c-2.543-0.805-5.213-2.053-8.006-3.746l-2.971,29.713h-22.221l4.025-40.254
		c-11.865,15.889-30.641,26.336-50.991,26.336c-32.557,0-56.81-26.74-54.171-59.726C2.836,26.74,31.366,0,63.925,0
		C80.429,0,94.8,6.871,104.614,17.945l18.727-7.172l-11.064,18.443c1.09,2.148,2.045,4.387,2.854,6.697l18.17,0.002l-0.742,7.428
		c3.537-2.795,7.086-5.059,10.646-6.793c3.559-1.734,7.559-2.602,12.006-2.604c3.691,0,6.943,0.656,9.758,1.967l21.207,0.002
		l2.037-20.381h22.223l-2.039,20.381h21.396l-1.549,15.49h-21.396l-2.527,25.269c-0.25,2.498-0.447,4.678-0.59,6.539
		c-0.145,1.863,0.025,3.535,0.514,5.016c0.443,1.482,1.362,2.666,2.756,3.555c1.438,0.848,3.596,1.27,6.475,1.27
		c1.186,0,2.754-0.254,4.711-0.762c1.998-0.508,3.397-0.973,4.203-1.396h1.905l-1.567,15.682c-2.477,0.635-5.087,1.121-7.829,1.461
		C212.147,108.419,208.808,108.609,204.872,108.609z M38.975,51.061c1.294-16.17,15.985-29.279,32.815-29.279
		c8.438,0,15.812,3.297,20.904,8.621L42.788,67.298C39.93,62.652,38.494,57.066,38.975,51.061z M249.731,107.212h-22.221
		l7.131-71.296h22.221L249.731,107.212z M258.513,25.756h-23.49l1.732-17.332h23.492L258.513,25.756z M340.028,107.212l3.562-35.617
		c0.352-3.512,0.584-6.472,0.698-8.888c0.114-2.412-0.07-4.381-0.553-5.904c-0.481-1.523-1.367-2.623-2.653-3.301
		c-1.242-0.719-3.066-1.078-5.479-1.08c-1.694,0-3.403,0.381-5.131,1.143c-1.722,0.721-3.626,1.758-5.707,3.111l-5.055,50.537
		h-22.348l3.562-35.617c0.346-3.471,0.555-6.41,0.628-8.824c0.118-2.455-0.063-4.443-0.546-5.969
		c-0.482-1.523-1.369-2.623-2.654-3.301c-1.241-0.719-3.047-1.078-5.415-1.08c-1.821,0-3.642,0.426-5.46,1.27
		c-1.82,0.848-3.613,1.842-5.378,2.984l-5.054,50.537h-22.221l7.129-71.296h22.223l-0.788,7.871
		c3.948-3.088,7.618-5.502,11.009-7.236s7.096-2.602,11.117-2.604c4.359,0,8.085,1.037,11.181,3.111
		c3.094,2.074,5.302,5.164,6.628,9.27c4.672-3.979,8.998-7.025,12.978-9.143c4.024-2.16,7.983-3.238,11.879-3.238
		c3.301,0,6.211,0.529,8.729,1.586c2.517,1.061,4.58,2.648,6.19,4.762c1.759,2.287,2.968,5.016,3.625,8.191
		c0.702,3.133,0.801,7.238,0.292,12.316l-4.642,46.41H340.028z M397.902,25.756h-23.491l1.733-17.332h23.491L397.902,25.756z
		 M455.587,90.199c-2.627-5.502-3.543-12.217-2.751-20.145c1.164-11.638,5.437-20.929,12.819-27.873
		c7.38-6.939,17.082-10.41,29.104-10.412c10.919,0,18.835,2.943,23.751,8.826c4.913,5.885,6.821,14.307,5.727,25.268l-0.801,8
		h-48.696c-0.119,3.301,0.302,6.076,1.264,8.316c0.965,2.203,2.354,3.959,4.172,5.27c1.773,1.314,3.9,2.266,6.381,2.857
		c2.483,0.553,5.229,0.826,8.233,0.826c2.581,0,5.149-0.273,7.701-0.826c2.556-0.592,4.917-1.354,7.087-2.285
		c1.899-0.803,3.656-1.67,5.275-2.604c1.658-0.93,3.011-1.756,4.057-2.477h2.35l-1.836,18.35c-1.893,0.721-3.631,1.396-5.219,2.031
		c-1.541,0.594-3.656,1.207-6.343,1.842c-2.476,0.635-5.022,1.121-7.638,1.459c-1.932,0.287-4.176,0.465-6.729,0.537l-104.372,0.053
		h-2.29h-19.933l7.131-71.296h22.221l-5.395,53.945l35.467-37.248l-26.469,0.096l1.923-16.346l53.833-0.447l-1.441,14.41
		l-38.08,39.873H455.587z M502.872,60.467c0.343-4.697-0.4-8.273-2.229-10.729c-1.786-2.455-4.797-3.682-9.028-3.684
		c-4.317,0-7.833,1.293-10.546,3.873c-2.671,2.584-4.354,6.096-5.053,10.539H502.872z M622.706,33.992l-45.745,97.455h-23.872
		l13.581-27.871l-15.143-54.882l-5.659,56.597h-22.223l9.881-98.789h22.221l-2.75,27.49h17.838l10.514,44.697l18.502-44.697H622.706
		z"/>
	<g>
		<path fill="#FFFFFF" d="M603.632,120.689h-1.43v-11.203h-4.198v-1.305h9.827v1.305h-4.199V120.689z"/>
		<path fill="#FFFFFF" d="M616.122,117.259h-0.071l-4.556-6.684v10.113h-1.376v-12.508h1.43l4.555,6.826l4.558-6.826h1.429v12.508
			h-1.411v-10.131L616.122,117.259z"/>
	</g>
</g>
</svg>
