<?xml version="1.0" encoding="utf-8"?>
<!-- Generator: Adobe Illustrator 18.1.0, SVG Export Plug-In . SVG Version: 6.00 Build 0)  -->
<svg version="1.1" id="Layer_1" xmlns="http://www.w3.org/2000/svg" xmlns:xlink="http://www.w3.org/1999/xlink" x="0px" y="0px"
	 width="612.1px" height="131.2px" viewBox="23.9 666.1 612.1 131.2" enable-background="new 23.9 666.1 612.1 131.2"
	 xml:space="preserve">
<path fill="#696F72" d="M130.6,726l1.3-12.8c-0.2-5.8-1.6-11.1-4.1-16l-6.6,9.3c0.9,3.1,1.3,6.5,1,9.9
	c-1.3,15.9-15.7,28.8-32.2,28.8c-4,0-7.6-0.6-10.9-1.9l40-41.7l16.9-17.1l-12.1,6.3c-7.9-10.1-20.7-16-35.4-15.4
	c-25.2,1-46.6,21.5-48,45.8c-1.4,24.3,18.2,43.1,43.5,42.2C106.3,762.6,125.6,746.6,130.6,726z M176,736.1c0.6-6.8,0-11.8-1.6-14.9
	c-1.8-3.1-4.8-4.6-9.3-4.6c-1.9,0-4,0.3-5.9,1c-1.9,0.6-4,1.5-5.9,2.8l-3.5,35.2c1.2,0.5,2.3,0.9,3.8,1c1.3,0.2,3.1,0.3,5,0.3
	c5.3,0,9.4-1.6,12.4-5.1C173.5,748.4,175.4,743.2,176,736.1z M225.3,773.1c-9,0-15.2-1.8-18.8-5.4c-3.6-3.6-5.1-9.6-4.1-18.1
	l3.4-32.8h-7.9c1.3,5.3,1.6,11.6,1,18.8c-1.2,11.2-4.8,20.2-11.2,27.1c-6.3,6.9-13.7,10.3-21.9,10.3c-3.5,0-6.5-0.3-9-1.2
	c-2.5-0.9-5.1-1.9-7.9-3.7l-3,29.1h-21.9l4-39.6c-12,15.8-30.3,25.8-50.4,25.8c-32.1,0-55.9-26.3-53.3-58.7s30.6-58.7,62.5-58.7
	c16.2,0,30.3,6.8,40,17.5l18.4-7.1l-10.9,18.4c1,2.2,1.9,4.3,2.8,6.6h17.9l-0.6,7.2c3.5-2.8,6.9-5,10.4-6.6
	c3.5-1.6,7.5-2.6,11.9-2.6c3.7,0,6.8,0.6,9.6,1.9H207l1.9-20h21.8l-1.9,20h21l-1.5,15.2h-21l-2.5,24.9c-0.2,2.5-0.3,4.6-0.5,6.5
	c-0.2,1.8,0,3.5,0.5,5c0.3,1.5,1.3,2.6,2.6,3.5c1.3,0.9,3.7,1.2,6.3,1.2c1.2,0,2.6-0.2,4.6-0.6c1.9-0.5,3.4-1,4.1-1.3h1.8l-1.5,15.4
	c-2.5,0.6-5,1.2-7.8,1.5C232.5,772.8,229.1,773.1,225.3,773.1z M62.3,716.4c1.3-15.9,15.7-28.8,32.2-28.8c8.3,0,15.6,3.4,20.5,8.4
	L66,732.3C63.3,727.9,61.7,722.3,62.3,716.4z M269.3,771.7h-21.8l6.9-70.2h21.8L269.3,771.7z M278,691.6h-23.1l1.6-17.1h23.1
	L278,691.6z M358,771.7l3.5-35c0.3-3.5,0.5-6.3,0.6-8.8c0-2.3,0-4.3-0.5-5.8c-0.5-1.5-1.3-2.6-2.6-3.4c-1.2-0.6-3-1-5.3-1
	c-1.6,0-3.4,0.3-5,1.2c-1.6,0.6-3.7,1.6-5.6,3.1l-5,49.6h-21.9l3.5-35c0.3-3.5,0.5-6.3,0.6-8.7c0-2.5,0-4.3-0.5-5.8
	c-0.5-1.5-1.3-2.6-2.6-3.4c-1.2-0.6-3-1-5.3-1c-1.8,0-3.7,0.3-5.3,1.2c-1.8,0.9-3.7,1.8-5.3,3l-5,49.6h-21.8l6.9-70.2h21.8l-0.9,7.8
	c4-3,7.5-5.4,10.7-7.1c3.2-1.7,6.9-2.6,10.9-2.6c4.3,0,7.9,1,11.1,3.1c3.1,1.9,5.1,5.1,6.5,9.1c4.6-4,8.8-6.9,12.8-9
	c4-2.2,7.9-3.1,11.8-3.1c3.4,0,6.2,0.5,8.7,1.5s4.4,2.6,6.2,4.6c1.6,2.3,3,5,3.7,8.1s0.9,7.1,0.3,12.1l-4.4,45.5L358,771.7
	L358,771.7z M415.1,691.6H392l1.6-17.1h23.1L415.1,691.6z M471.6,755c-2.6-5.4-3.5-12.1-2.6-19.9c1.2-11.5,5.3-20.7,12.5-27.5
	c7.2-6.8,16.8-10.3,28.7-10.3c10.7,0,18.5,3,23.4,8.7c4.8,5.8,6.8,14.1,5.6,24.9l-0.9,7.9h-47.8c0,3.4,0.3,5.9,1.2,8.2
	c1,2.2,2.3,4,4.1,5.1c1.6,1.3,3.8,2.2,6.3,2.8c2.5,0.5,5.1,0.9,8.1,0.9c2.5,0,5-0.2,7.6-0.9c2.6-0.6,4.8-1.3,6.9-2.3
	c1.8-0.9,3.7-1.6,5.1-2.6c1.6-0.9,3-1.6,4-2.5h2.3l-1.8,18.1c-1.8,0.6-3.7,1.3-5.1,1.9c-1.5,0.5-3.7,1.2-6.3,1.8
	c-2.5,0.6-5,1.2-7.6,1.5c-1.8,0.2-4.1,0.5-6.6,0.5H406.1h-2.3h-19.7l6.9-70.2h21.8l-5.3,53.1l34.9-36.5h-26l1.8-16l53-0.3l-1.3,14.3
	L432.7,755L471.6,755L471.6,755z M518.1,725.7c0.3-4.6-0.3-8.1-2.2-10.6c-1.8-2.5-4.6-3.7-8.8-3.7c-4.1,0-7.8,1.3-10.4,3.8
	c-2.6,2.5-4.3,5.9-5,10.4L518.1,725.7L518.1,725.7z M636,699.7l-45,95.8h-23.5l13.3-27.5l-14.9-54l-5.6,55.6h-21.8l9.7-97.1H570
	l-2.6,26.9H585l10.3,44l18.2-44L636,699.7L636,699.7z"/>
</svg>
