<?xml version="1.0" encoding="utf-8"?>
<!-- Generator: Adobe Illustrator 20.0.0, SVG Export Plug-In . SVG Version: 6.00 Build 0)  -->
<svg version="1.1" xmlns="http://www.w3.org/2000/svg" xmlns:xlink="http://www.w3.org/1999/xlink" x="0px" y="0px"
	 viewBox="0 0 322 103" style="enable-background:new 0 0 322 103;" xml:space="preserve">
<style type="text/css">
	.st0{fill:#EFD21D;}
</style>
<g>
	<g>
		<path d="M129.5,61h0.5c-0.5,1.8-1.8,2.7-3.9,2.7c-1.3,0-2.5-0.5-3.4-1.4c-0.9-0.9-1.4-2.1-1.4-3.6c0-1.5,0.5-2.8,1.5-3.7
			c1-1,2.2-1.4,3.5-1.4c0.8,0,1.6,0.2,2.2,0.5c0.7,0.4,1,0.8,1,1.3c0,0.2-0.1,0.4-0.2,0.5c-0.1,0.2-0.3,0.3-0.5,0.3
			c-0.5,0-0.8-0.3-0.9-0.9c-0.1-0.4-0.2-0.8-0.4-0.9c-0.2-0.2-0.6-0.3-1.2-0.3c-1,0-1.8,0.4-2.3,1.1c-0.5,0.7-0.8,1.8-0.8,3.2
			c0,1.5,0.3,2.6,0.8,3.5c0.6,0.8,1.4,1.2,2.5,1.2C128.2,63,129.1,62.4,129.5,61z"/>
		<path d="M137.2,55.4c0.5-0.6,1-1.1,1.5-1.4c0.6-0.3,1.2-0.5,1.9-0.5c0.8,0,1.4,0.2,1.9,0.5c0.5,0.3,0.8,0.7,1,1.2
			c0.2,0.5,0.2,1.2,0.2,2.3v2.6c0,1.1,0,1.8,0.1,2c0,0.2,0.2,0.4,0.4,0.5c0.2,0.1,0.6,0.2,1.1,0.2v0.5h-4.8v-0.5h0.2
			c0.6,0,0.9-0.1,1.1-0.2c0.2-0.2,0.3-0.3,0.3-0.6c0-0.2,0-0.8,0-1.9v-2.8c0-0.8,0-1.4-0.1-1.7s-0.3-0.7-0.6-0.9
			c-0.3-0.2-0.8-0.4-1.3-0.4c-0.6,0-1.1,0.2-1.6,0.5c-0.5,0.3-0.9,0.9-1.2,1.6v3.8c0,1.1,0,1.7,0.1,1.9c0,0.2,0.2,0.4,0.3,0.6
			c0.2,0.1,0.6,0.2,1.1,0.2v0.5h-4.8v-0.5h0.2c0.6,0,0.9-0.1,1.1-0.2c0.2-0.2,0.3-0.3,0.3-0.6c0-0.2,0-0.9,0-1.9v-9.4
			c0-0.9-0.1-1.5-0.3-1.8c-0.2-0.3-0.6-0.4-1.3-0.4V48c1.2,0,2.2-0.2,3-0.5h0.2V55.4z"/>
		<path d="M159.1,61.6h0.4c-0.1,1.3-0.7,2-1.9,2c-0.5,0-0.9-0.1-1.2-0.4c-0.3-0.3-0.5-0.7-0.6-1.2c-0.8,0.5-1.5,1-2.1,1.2
			c-0.6,0.3-1.2,0.4-1.7,0.4c-0.6,0-1.2-0.2-1.6-0.6c-0.5-0.4-0.7-0.9-0.7-1.5c0-0.8,0.4-1.5,1.2-2.1c0.8-0.6,1.8-1.2,3.2-1.7
			l1.8-0.7v-0.5c0-0.6,0-1.1-0.1-1.4c-0.1-0.3-0.3-0.6-0.7-0.8c-0.4-0.2-0.8-0.3-1.4-0.3c-1.1,0-1.8,0.4-1.9,1.1
			c-0.1,0.8-0.4,1.2-1,1.2c-0.5,0-0.7-0.2-0.7-0.7c0-0.4,0.3-0.9,0.9-1.4c0.6-0.5,1.6-0.8,2.9-0.8c1,0,1.7,0.2,2.3,0.5
			c0.5,0.3,0.9,0.7,1.1,1c0.2,0.4,0.3,1,0.3,1.8v3.8c0,0.9,0,1.5,0.1,1.7c0.1,0.3,0.3,0.4,0.6,0.4C158.7,62.7,159,62.3,159.1,61.6z
			 M155.8,57.5l-1.2,0.5c-2,0.8-3,1.8-3,3c0,0.5,0.1,0.9,0.4,1.2c0.3,0.3,0.6,0.4,1,0.4c0.4,0,0.8-0.1,1.2-0.4
			c0.5-0.2,1-0.6,1.6-1.1V57.5z"/>
		<path d="M166.7,55.9c0.3-0.7,0.7-1.2,1.3-1.7c0.6-0.5,1.2-0.7,1.7-0.7c0.5,0,0.9,0.2,1.2,0.5c0.3,0.3,0.4,0.6,0.4,1
			c0,0.2-0.1,0.4-0.2,0.6c-0.1,0.2-0.3,0.2-0.5,0.2c-0.4,0-0.7-0.3-0.9-0.8c-0.1-0.4-0.3-0.6-0.6-0.6c-0.3,0-0.7,0.2-1.2,0.7
			c-0.5,0.4-0.8,0.9-0.9,1.4c-0.1,0.5-0.2,1.1-0.2,2v1.7c0,1,0,1.6,0,1.9c0,0.3,0.1,0.5,0.3,0.6c0.2,0.1,0.5,0.2,1,0.2h0.3v0.5h-5
			v-0.5h0.2c0.5,0,0.8-0.1,1-0.2c0.2-0.1,0.3-0.3,0.3-0.5c0-0.2,0.1-0.9,0.1-2v-2.6c0-1,0-1.6,0-1.9c0-0.3-0.1-0.5-0.3-0.6
			c-0.2-0.1-0.5-0.2-1-0.2h-0.2v-0.5c0.7-0.1,1.7-0.3,2.8-0.7C166.6,54.1,166.7,54.9,166.7,55.9z"/>
		<path d="M178.2,53.5v6.5c0,1,0,1.6,0,1.9c0,0.3,0.1,0.5,0.3,0.6c0.2,0.1,0.5,0.2,1,0.2h0.2v0.5h-5.1v-0.5h0.4
			c0.5,0,0.9-0.1,1.1-0.2c0.2-0.2,0.3-0.3,0.3-0.6c0-0.2,0-0.9,0-1.9v-2.8c0-1.1-0.1-1.8-0.2-2c-0.1-0.2-0.2-0.4-0.4-0.5
			c-0.2-0.1-0.5-0.1-0.9-0.1h-0.3v-0.5c1.4-0.1,2.4-0.3,3.2-0.6H178.2z M176,48.7c0-0.3,0.1-0.6,0.3-0.8c0.2-0.2,0.5-0.4,0.8-0.4
			c0.3,0,0.6,0.1,0.8,0.4c0.2,0.2,0.3,0.5,0.3,0.8c0,0.3-0.1,0.6-0.3,0.9c-0.2,0.2-0.5,0.4-0.8,0.4c-0.3,0-0.6-0.1-0.8-0.4
			C176.1,49.3,176,49.1,176,48.7z"/>
		<path d="M189.7,54.4h-2.8v5.7c0,0.9,0,1.5,0.1,1.8c0.1,0.3,0.2,0.5,0.5,0.7c0.2,0.2,0.5,0.3,0.8,0.3c0.6,0,1-0.3,1.4-0.9l0.4,0.2
			c-0.2,0.5-0.6,0.9-1,1.1c-0.5,0.3-0.9,0.4-1.4,0.4c-0.6,0-1-0.2-1.5-0.5c-0.4-0.3-0.7-0.7-0.8-1.1c-0.1-0.4-0.2-1.2-0.2-2.3v-5.3
			h-1.4v-0.5c0.6,0,1.2-0.3,1.7-0.8c0.5-0.5,0.8-1.2,1-2.2h0.4v2.9h2.8V54.4z"/>
		<path d="M199.2,61.5l2.2-5.2c0.3-0.8,0.5-1.2,0.5-1.3c0-0.4-0.4-0.6-1.3-0.6v-0.5h3.3v0.5c-0.5,0-0.9,0.2-1.1,0.4
			c-0.2,0.2-0.5,0.8-0.9,1.6l-4.2,10.1c-0.4,1-0.7,1.6-1.1,2c-0.3,0.3-0.6,0.5-1,0.5c-0.5,0-0.7-0.2-0.7-0.7c0-0.5,0.4-1,1.2-1.3
			c0.5-0.2,0.8-0.4,0.9-0.5c0.2-0.1,0.3-0.4,0.5-0.8l0.9-2.2l-3.5-7.6c-0.3-0.7-0.6-1.1-0.8-1.3c-0.2-0.2-0.6-0.3-1.1-0.3v-0.5h4.3
			v0.5c-0.8,0-1.1,0.2-1.1,0.5c0,0.1,0.1,0.5,0.4,1.1L199.2,61.5z"/>
		<path d="M208.6,54.5c0-0.3,0.1-0.6,0.3-0.9c0.2-0.2,0.5-0.4,0.9-0.4c0.3,0,0.6,0.1,0.9,0.4c0.2,0.2,0.4,0.5,0.4,0.9
			c0,0.3-0.1,0.6-0.4,0.9c-0.2,0.2-0.5,0.4-0.9,0.4c-0.3,0-0.6-0.1-0.9-0.4C208.7,55.1,208.6,54.8,208.6,54.5z M208.6,62.4
			c0-0.3,0.1-0.6,0.4-0.9c0.2-0.2,0.5-0.4,0.9-0.4c0.3,0,0.6,0.1,0.9,0.4c0.2,0.2,0.4,0.5,0.4,0.9c0,0.3-0.1,0.6-0.4,0.9
			c-0.2,0.2-0.5,0.4-0.9,0.4c-0.3,0-0.6-0.1-0.9-0.4C208.7,63,208.6,62.7,208.6,62.4z"/>
		<path d="M235.9,63.6h-0.5l-2.8-7.5l-2.9,7.5h-0.5l-2.9-7.5c-0.3-0.8-0.6-1.4-0.7-1.5c-0.2-0.2-0.5-0.3-1-0.3v-0.5h4.3v0.5
			c-0.5,0-0.8,0-1,0.1c-0.2,0.1-0.3,0.2-0.3,0.5c0,0.2,0.1,0.6,0.4,1.3l1.9,5l2.9-7.5h0.4l2.8,7.5l2.1-5.3c0.2-0.6,0.3-0.9,0.3-1
			c0-0.4-0.4-0.6-1.2-0.6v-0.5h3v0.5c-0.4,0-0.7,0.1-0.9,0.2c-0.2,0.1-0.4,0.4-0.6,0.9l-0.3,0.7L235.9,63.6z"/>
		<path d="M253.9,61.6h0.4c-0.1,1.3-0.7,2-1.9,2c-0.5,0-0.9-0.1-1.2-0.4c-0.3-0.3-0.5-0.7-0.6-1.2c-0.8,0.5-1.5,1-2.1,1.2
			c-0.6,0.3-1.2,0.4-1.7,0.4c-0.6,0-1.2-0.2-1.6-0.6c-0.5-0.4-0.7-0.9-0.7-1.5c0-0.8,0.4-1.5,1.2-2.1c0.8-0.6,1.8-1.2,3.2-1.7
			l1.8-0.7v-0.5c0-0.6,0-1.1-0.1-1.4c-0.1-0.3-0.3-0.6-0.7-0.8c-0.4-0.2-0.8-0.3-1.4-0.3c-1.1,0-1.8,0.4-1.9,1.1
			c-0.1,0.8-0.4,1.2-1,1.2c-0.5,0-0.7-0.2-0.7-0.7c0-0.4,0.3-0.9,0.9-1.4c0.6-0.5,1.6-0.8,2.9-0.8c1,0,1.7,0.2,2.3,0.5
			c0.5,0.3,0.9,0.7,1.1,1c0.2,0.4,0.3,1,0.3,1.8v3.8c0,0.9,0,1.5,0.1,1.7s0.3,0.4,0.6,0.4C253.4,62.7,253.7,62.3,253.9,61.6z
			 M250.5,57.5l-1.2,0.5c-2,0.8-3,1.8-3,3c0,0.5,0.1,0.9,0.4,1.2c0.3,0.3,0.6,0.4,1,0.4c0.4,0,0.8-0.1,1.2-0.4
			c0.5-0.2,1-0.6,1.6-1.1V57.5z"/>
		<path d="M263.7,54.4h-2.8v5.7c0,0.9,0,1.5,0.1,1.8c0.1,0.3,0.2,0.5,0.5,0.7c0.2,0.2,0.5,0.3,0.8,0.3c0.6,0,1-0.3,1.4-0.9l0.4,0.2
			c-0.2,0.5-0.6,0.9-1,1.1c-0.5,0.3-0.9,0.4-1.4,0.4c-0.6,0-1-0.2-1.5-0.5c-0.4-0.3-0.7-0.7-0.8-1.1c-0.1-0.4-0.2-1.2-0.2-2.3v-5.3
			h-1.4v-0.5c0.6,0,1.2-0.3,1.7-0.8c0.5-0.5,0.8-1.2,1-2.2h0.4v2.9h2.8V54.4z"/>
		<path d="M276.5,57.1H270c0,0.5,0,0.8,0,1c0,1.7,0.3,2.9,0.8,3.7c0.5,0.8,1.3,1.2,2.3,1.2c1.4,0,2.4-0.6,3-1.9h0.6
			c-0.2,0.8-0.7,1.4-1.5,1.8c-0.7,0.4-1.5,0.7-2.4,0.7c-0.8,0-1.5-0.2-2.3-0.6c-0.7-0.4-1.3-1-1.7-1.7c-0.5-0.7-0.7-1.6-0.7-2.7
			c0-1.5,0.4-2.7,1.3-3.7c0.9-1,2-1.5,3.3-1.5c1.2,0,2.2,0.4,2.9,1.1C276.1,55.4,276.5,56.2,276.5,57.1z M274.5,56.6
			c0-0.2,0-0.3,0-0.5c0-0.7-0.2-1.2-0.6-1.6c-0.4-0.4-0.9-0.6-1.5-0.6c-1.4,0-2.2,0.9-2.5,2.6H274.5z"/>
		<path d="M284.3,55.9c0.3-0.7,0.7-1.2,1.3-1.7c0.6-0.5,1.2-0.7,1.7-0.7c0.5,0,0.9,0.2,1.2,0.5c0.3,0.3,0.4,0.6,0.4,1
			c0,0.2-0.1,0.4-0.2,0.6c-0.1,0.2-0.3,0.2-0.5,0.2c-0.4,0-0.7-0.3-0.9-0.8c-0.1-0.4-0.3-0.6-0.6-0.6c-0.3,0-0.7,0.2-1.2,0.7
			c-0.5,0.4-0.8,0.9-0.9,1.4c-0.1,0.5-0.2,1.1-0.2,2v1.7c0,1,0,1.6,0,1.9c0,0.3,0.1,0.5,0.3,0.6c0.2,0.1,0.5,0.2,1,0.2h0.3v0.5h-5
			v-0.5h0.2c0.5,0,0.8-0.1,1-0.2c0.2-0.1,0.3-0.3,0.3-0.5c0-0.2,0.1-0.9,0.1-2v-2.6c0-1,0-1.6,0-1.9c0-0.3-0.1-0.5-0.3-0.6
			c-0.2-0.1-0.5-0.2-1-0.2h-0.2v-0.5c0.7-0.1,1.7-0.3,2.8-0.7C284.2,54.1,284.3,54.9,284.3,55.9z"/>
	</g>
	<g>
		<path class="st0" d="M108.7,15.5c-0.9-1.5-1.9-3.3-2.7-4.8c-0.5-0.9-0.5-1.5,0.5-1.9c1.2-0.5,1.4-1.2,0.7-2.3
			c-0.6-1-1.3-1.4-2.4-0.6c-0.8,0.6-1.5,0.5-2.2-0.3c-1.2-1.5-2.8-2-4.7-2c-2.2,0-4.5-0.6-6.5,1.1c-0.3,0.3-1.1,0.2-1.6,0.2
			c-5.6,0-11.2,0.1-16.8,0c-3.6-0.1-7.2-0.5-10.8-0.6c-0.9,0-2,0.4-2.8,1c-0.8,0.6-1.3,1.6-2,2.3c-0.9,0.9-1.9,1.7-2.8,2.6
			C54.5,10,54.2,9.8,54,9.7c0.1-1.2,0.2-2.3,0.4-3.9c-0.9,0.7-1.5,1.2-2.3,1.9c-0.5-0.8-0.9-1.8-1.5-2.5c-0.5-0.5-1.6-1.2-2-0.9
			c-2.5,1.2-4.9,2.6-7.3,4c-0.4,0.2-0.6,1.2-0.4,1.7c0.6,2,1.4,3.9,2.3,6.1c-4,1.4-3.7,4.6-3.7,8l0,70c0,5,2.1,7.1,7.2,7.1
			c18.8,0.1,37.7,0,56.5,0c3.5,0,6.5-2.4,6.5-5.4l0.3-73.2C110,19.8,109.9,17.8,108.7,15.5z M66.2,12.8c0-1.3,1.1-2.4,2.4-2.4h19.1
			c1.3,0,2.4,1.1,2.4,2.4v0.8c0,1.3-1.1,2.4-2.4,2.4H68.6c-1.3,0-2.4-1.1-2.4-2.4V12.8z M97.8,85.1c-0.4,0.2-0.9,0.4-1.3,0.4
			c-0.9,0-1.9-0.5-2.4-1.4l-9.3-16.3H64.7l-9.3,16.3c-0.5,0.9-1.4,1.4-2.4,1.4c-0.5,0-0.9-0.1-1.3-0.4c-1.3-0.7-1.7-2.4-1-3.7
			l9.1-15.9V48.9l-8.9-15.5c-0.7-1.3-0.3-3,1-3.7c1.3-0.7,3-0.3,3.7,1L64,45.5h21.4l8.5-14.7c0.7-1.3,2.4-1.7,3.7-1
			c1.3,0.7,1.7,2.4,1,3.7l-8.9,15.5v16.6l9.1,15.9C99.6,82.7,99.1,84.3,97.8,85.1z"/>
		<path class="st0" d="M81.6,50.9H67.9c-1.5,0-2.7,1.2-2.7,2.7v6c0,1.5,1.2,2.7,2.7,2.7h13.7c1.5,0,2.7-1.2,2.7-2.7v-6
			C84.3,52.1,83.1,50.9,81.6,50.9z"/>
	</g>
</g>
</svg>
