<?xml version="1.0" encoding="utf-8"?>
<!-- Generator: Adobe Illustrator 20.1.0, SVG Export Plug-In . SVG Version: 6.00 Build 0)  -->
<svg version="1.1" id="Layer_1" xmlns="http://www.w3.org/2000/svg" xmlns:xlink="http://www.w3.org/1999/xlink" x="0px" y="0px"
	 viewBox="0 0 290 172" style="enable-background:new 0 0 290 172;" xml:space="preserve">
<style type="text/css">
	.st0{fill:#009CDB;}
	.st1{fill:#FFFFFF;}
	.st2{fill:#728089;}
</style>
<g id="desk_1_">
	<g>
		<path class="st0" d="M146.2,44c-5.2,0-10.2,1.1-14.6,3.2c-4.8-9.2-14.3-15.4-25.4-15.4c-8.1,0-15.4,3.4-20.6,8.8
			C79.7,33,70.5,28.1,60.1,28.1c-17.9,0-32.3,14.5-32.3,32.3c0,4.5,0.9,8.7,2.6,12.6c-8.1,4.9-13.5,13.8-13.5,24
			c0,15.5,12.6,28,28,28c1.8,0,3.5-0.2,5.2-0.5c4.2,11.3,15.1,19.4,27.8,19.4c12.2,0,22.7-7.4,27.3-18c3.5,1.5,7.3,2.3,11.4,2.3
			c10.5,0,19.7-5.5,24.8-13.9c0.9,0.1,1.8,0.2,2.7,0.3c3.9,0.3,9.7-0.5,11.5-1.2c15-4.1,26.1-17.8,26.1-34.1
			C181.6,59.9,165.7,44,146.2,44z"/>
		<g>
			<path class="st1" d="M98.2,74.5h3.9c2-6.7,5-10,8.6-10c2.9,0,4.5,1.7,4.5,3c0,0.6-0.4,1-1,1c-1.8,0-1.6-3.1-3.9-3.1
				c-2.5,0-3.9,3-5.5,9.1l3.5-0.1l-0.3,0.9h-3.6L100,90.5c-2.3,7.4-4.6,12.1-10.3,12.1c-2.6,0-4.4-1.2-4.4-2.9
				c0-0.8,0.6-1.4,1.4-1.4s1.3,0.5,1.3,1.5c0,0.3-0.1,0.5-0.1,0.8c0,0.5,0.7,1,1.9,1c3.5,0,5.2-4.2,7.5-11.8l4.5-14.6H98L98.2,74.5"
				/>
			<path class="st1" d="M113.4,87.7c-1.5,0-2.5-0.6-3.3-1.7c-1.1-1.5-1.2-2.8-1.2-4.6c0-2.5,0.5-3.8,1.7-5.2
				c0.8-0.9,1.6-1.1,2.5-1.1c1.7,0,4.3,2.3,4.3,6C117.5,84.7,115.9,87.7,113.4,87.7 M113,88.7c4,0,7.3-3.7,7.3-7.2
				c0-2.1-0.8-3.8-2.2-5.4c-1-1-2.8-1.9-4.6-1.9c-1.1,0-2.7,0.3-4.4,1.6c-1.9,1.5-2.8,3.6-2.8,5.3c0,2.3,0.3,3.6,1.8,5.4
				C109.4,88.1,111.4,88.7,113,88.7"/>
			<path class="st1" d="M123.5,79.6c0-2.1-0.7-2.5-1-2.6c-0.2-0.1-0.9-0.2-1-0.2s-0.4-0.1-0.4-0.2v-0.2c0-0.1,0.2-0.3,0.4-0.3
				c0.3-0.1,1.9-0.7,3.3-1.7c0.2-0.2,0.7-0.4,0.7,0.1l0.2,2.2h0.1c1-1.2,2.5-2.7,3.9-2.7c1.1,0,1.7,0.8,1.7,1.5c0,1-0.8,1.6-1.4,1.6
				c-0.4,0-0.7-0.1-1-0.2c-0.3-0.2-0.7-0.3-1.1-0.3c-0.5,0-1.3,0.3-1.8,1.4c-0.2,0.4-0.2,1-0.2,1.1V86c0,1,0,1.2,0.7,1.2h1.5
				c0.2,0,0.2,0.3,0.2,0.4v0.6c0,0.2,0,0.3-0.2,0.3s-1.7-0.1-3.5-0.1c-2,0-3.4,0.1-3.6,0.1c-0.1,0-0.1-0.1-0.1-0.3v-0.6
				c0-0.2,0-0.4,0.3-0.4h1.3c0.5,0,0.8-0.1,0.8-0.5c0-1.1,0.1-2.2,0.1-3.9L123.5,79.6L123.5,79.6z"/>
			<path class="st1" d="M133.3,80.4c0,1.8,0.8,3.8,1.7,5c1.1,1.4,2.5,1.7,3.6,1.7c1.6,0,2.5-0.4,3.6-1.4c0.1-0.1,0.2-0.1,0.3,0
				l0.3,0.3c0.1,0.1,0.2,0.2,0,0.4c-1,1.1-3.1,2.3-5.3,2.3c-1.7,0-3.6-0.4-5.1-2.3c-1.2-1.6-1.5-3-1.5-4.5c0-3.8,2.7-7.7,7-7.7
				c3.4,0,4.5,2,4.5,2.7c0,0.8-0.5,1.1-1.2,1.1c-0.8,0-1.3-0.4-1.8-1.3c-0.7-1.3-1.4-1.4-2.2-1.4C135.3,75.3,133.3,77,133.3,80.4"/>
			<path class="st1" d="M145.8,78.5c0.6-2.5,2-3.3,3.5-3.3c2.1,0,2.5,2.1,2.5,2.9c0,0.3-0.3,0.4-0.9,0.4H145.8z M153.8,79.7
				c0.5,0,0.9-0.1,0.9-0.6c0-1.3-1.1-4.9-4.8-4.9c-1.6,0-3.3,0.3-4.7,1.7c-1.7,1.7-2.1,3.9-2.1,5.2c0,2.3,0.3,3.5,1.4,5.2
				c1.2,1.8,3.3,2.3,5.2,2.3c2.9,0,4.6-2.3,5.2-3.6c0.2-0.4,0.1-0.5,0-0.5l-0.4-0.2c-0.1,0-0.2,0-0.3,0.2c-0.6,1.1-2,2.2-4,2.2
				c-2.6,0-4.7-2.4-4.7-5.6c0-0.8,0-1.5,0.1-1.5h8.2V79.7z"/>
			<path class="st1" d="M71.8,78.5c0,1.7,0,6.6,0.1,7.6c0,0.6,0.2,0.9,0.9,0.9h1.5c0.3,0,0.7,0.3,0.7,0.4V88c0,0.2-0.2,0.3-0.3,0.3
				c-0.2,0-1.8-0.1-3.8-0.1c-2.1,0-2.6,0.1-2.9,0.1c-0.2,0-0.4-0.1-0.4-0.3v-0.6c0-0.2,0.3-0.4,0.7-0.4h0.6c0.4,0,0.6-0.2,0.7-0.7
				c0-1,0-6.6,0-8.5v-2.1c0-2.3,0-5.3,0-6.2c-0.1-1.8,0-1.8-1.4-2.1c-0.3-0.1-0.7-0.1-0.9-0.1c-0.1,0-0.2-0.1-0.2-0.2v-0.3
				c0-0.1,0.1-0.2,0.3-0.2c1.5-0.5,2.6-1,3.9-1.9c0.3-0.2,0.5-0.3,0.7-0.3s0.3,0.2,0.2,0.6c0,1.8-0.2,8.7-0.2,10.5v3H71.8z"/>
			<path class="st1" d="M77.5,78.5c0.6-2.5,2-3.3,3.5-3.3c2.1,0,2.5,2.1,2.5,2.9c0,0.3-0.3,0.4-0.9,0.4H77.5z M85.5,79.7
				c0.5,0,0.9-0.1,0.9-0.6c0-1.3-1.1-4.9-4.8-4.9c-1.6,0-3.3,0.3-4.7,1.7c-1.7,1.7-2.1,3.9-2.1,5.2c0,2.3,0.3,3.5,1.4,5.2
				c1.2,1.8,3.3,2.3,5.2,2.3c2.9,0,4.6-2.3,5.2-3.6c0.2-0.4,0.1-0.5,0-0.5l-0.4-0.2c-0.1,0-0.2,0-0.3,0.2c-0.6,1.1-2,2.2-4,2.2
				c-2.6,0-4.7-2.4-4.7-5.6c0-0.8,0-1.5,0.1-1.5h8.2V79.7z"/>
			<path class="st1" d="M88.6,87.8c-0.2-0.1-0.2-0.3-0.2-0.5l-0.6-3.1c0-0.2,0.1-0.2,0.2-0.3l0.4-0.1c0.1,0,0.2,0,0.3,0.2l0.8,1.6
				c0.7,1.2,1.1,2,2.9,2c1.2,0,2.6-0.7,2.6-2.2s-0.7-2.3-3.2-3c-1.9-0.6-3.9-1.6-3.9-4.2c0-2.3,2.1-4,4.6-4c1.6,0,2.4,0.4,3,0.7
				c0.5,0.2,0.6,0.4,0.6,0.6l0.5,2.3c0,0.1-0.1,0.2-0.2,0.3L96,78.2c-0.1,0-0.2,0-0.3-0.2l-1.1-1.5c-0.4-0.6-1-1.3-2.3-1.3
				c-1.2,0-2.5,0.8-2.5,2.2c0,1.9,1.5,2.3,3.2,2.7c2.4,0.7,3.9,1.7,3.9,4.2c0,2.7-2.2,4.3-5,4.3C90.3,88.7,89,88.1,88.6,87.8"/>
			<path class="st1" d="M62.6,85.3c0,0.9-1.6,2-2.6,1.9s-1.8-0.7-1.8-1.9c0-2.7,3.1-3.2,4.4-4.1C62.6,81.2,62.6,85.3,62.6,85.3z
				 M65.1,82.8v-5.2c0-0.9,0.1-1.6-0.6-2.4c-0.5-0.5-1-0.9-2.6-1c-1.5-0.1-2.6,0.4-4,1.2c-1.3,0.7-2.3,1.9-2.3,3
				c0,0.8,0.3,1.1,0.8,1.1c1.3,0.1,1.7-0.6,1.7-1.8c0-0.6-0.3-1.1,0.2-1.5s1.5-0.8,2.1-0.8c1,0,1.5,0.4,1.8,0.8
				c0.4,0.4,0.3,1.3,0.3,1.9v2.2c0,0.4-2.1,1.1-3.6,1.7c-2.6,1-3.2,2.3-3.2,3.8c0,2.1,1.2,2.8,2,2.8c0.7,0,1.3,0.1,2-0.1
				c1.5-0.4,2.6-1.1,3.3-1.8h0.1c0.3,1.4,1.2,2,2.3,2c1.4,0,2-1,2.2-1.5c0.2-0.3,0.1-0.5,0-0.6l-0.3-0.3c-0.1-0.1-0.2,0-0.3,0.1
				c-0.2,0.2-0.4,0.5-0.9,0.4c-0.6,0-1.1-0.3-1.1-2.2v-1.8H65.1z"/>
			<path class="st1" d="M71.8,78.5c0,1.7,0,6.6,0.1,7.6c0,0.6,0.2,0.9,0.9,0.9h1.5c0.3,0,0.7,0.3,0.7,0.4V88c0,0.2-0.2,0.3-0.3,0.3
				c-0.2,0-1.8-0.1-3.8-0.1c-2.1,0-2.6,0.1-2.9,0.1c-0.2,0-0.4-0.1-0.4-0.3v-0.6c0-0.2,0.3-0.4,0.7-0.4h0.6c0.4,0,0.6-0.2,0.7-0.7
				c0-1,0-6.6,0-8.5v-2.1c0-2.3,0-5.3,0-6.2c-0.1-1.8,0-1.8-1.4-2.1c-0.3-0.1-0.7-0.1-0.9-0.1c-0.1,0-0.2-0.1-0.2-0.2v-0.3
				c0-0.1,0.1-0.2,0.3-0.2c1.5-0.5,2.6-1,3.9-1.9c0.3-0.2,0.5-0.3,0.7-0.3s0.3,0.2,0.2,0.6c0,1.8-0.2,8.7-0.2,10.5v3H71.8z"/>
			<path class="st1" d="M77.5,78.5c0.6-2.5,2-3.3,3.5-3.3c2.1,0,2.5,2.1,2.5,2.9c0,0.3-0.3,0.4-0.9,0.4H77.5z M85.5,79.7
				c0.5,0,0.9-0.1,0.9-0.6c0-1.3-1.1-4.9-4.8-4.9c-1.6,0-3.3,0.3-4.7,1.7c-1.7,1.7-2.1,3.9-2.1,5.2c0,2.3,0.3,3.5,1.4,5.2
				c1.2,1.8,3.3,2.3,5.2,2.3c2.9,0,4.6-2.3,5.2-3.6c0.2-0.4,0.1-0.5,0-0.5l-0.4-0.2c-0.1,0-0.2,0-0.3,0.2c-0.6,1.1-2,2.2-4,2.2
				c-2.6,0-4.7-2.4-4.7-5.6c0-0.8,0-1.5,0.1-1.5h8.2V79.7z"/>
			<path class="st1" d="M88.6,87.8c-0.2-0.1-0.2-0.3-0.2-0.5l-0.6-3.1c0-0.2,0.1-0.2,0.2-0.3l0.4-0.1c0.1,0,0.2,0,0.3,0.2l0.8,1.6
				c0.7,1.2,1.1,2,2.9,2c1.2,0,2.6-0.7,2.6-2.2s-0.7-2.3-3.2-3c-1.9-0.6-3.9-1.6-3.9-4.2c0-2.3,2.1-4,4.6-4c1.6,0,2.4,0.4,3,0.7
				c0.5,0.2,0.6,0.4,0.6,0.6l0.5,2.3c0,0.1-0.1,0.2-0.2,0.3L96,78.2c-0.1,0-0.2,0-0.3-0.2l-1.1-1.5c-0.4-0.6-1-1.3-2.3-1.3
				c-1.2,0-2.5,0.8-2.5,2.2c0,1.9,1.5,2.3,3.2,2.7c2.4,0.7,3.9,1.7,3.9,4.2c0,2.7-2.2,4.3-5,4.3C90.3,88.7,89,88.1,88.6,87.8"/>
			<path class="st1" d="M46.5,87.8c-0.2-0.1-0.2-0.3-0.2-0.5l-0.6-3.1c0-0.2,0.1-0.2,0.2-0.3l0.4-0.1c0.1,0,0.2,0,0.3,0.2l0.8,1.6
				c0.7,1.2,1.1,2,2.9,2c1.2,0,2.6-0.7,2.6-2.2s-0.7-2.3-3.2-3c-1.9-0.6-3.9-1.6-3.9-4.2c0-2.3,2.1-4,4.6-4c1.6,0,2.4,0.4,3,0.7
				c0.5,0.2,0.6,0.4,0.6,0.6l0.5,2.3c0,0.1-0.1,0.2-0.2,0.3l-0.4,0.1c-0.1,0-0.2,0-0.3-0.2l-1.1-1.5c-0.4-0.6-1-1.3-2.3-1.3
				c-1.2,0-2.5,0.8-2.5,2.2c0,1.9,1.5,2.3,3.2,2.7c2.4,0.7,3.9,1.7,3.9,4.2c0,2.7-2.2,4.3-5,4.3C48.2,88.7,46.9,88.1,46.5,87.8"/>
			<path class="st1" d="M62.6,85.3c0,0.9-1.6,2-2.6,1.9s-1.8-0.7-1.8-1.9c0-2.7,3.1-3.2,4.4-4.1C62.6,81.2,62.6,85.3,62.6,85.3z
				 M65.1,82.8v-5.2c0-0.9,0.1-1.6-0.6-2.4c-0.5-0.5-1-0.9-2.6-1c-1.5-0.1-2.6,0.4-4,1.2c-1.3,0.7-2.3,1.9-2.3,3
				c0,0.8,0.3,1.1,0.8,1.1c1.3,0.1,1.7-0.6,1.7-1.8c0-0.6-0.3-1.1,0.2-1.5s1.5-0.8,2.1-0.8c1,0,1.5,0.4,1.8,0.8
				c0.4,0.4,0.3,1.3,0.3,1.9v2.2c0,0.4-2.1,1.1-3.6,1.7c-2.6,1-3.2,2.3-3.2,3.8c0,2.1,1.2,2.8,2,2.8c0.7,0,1.3,0.1,2-0.1
				c1.5-0.4,2.6-1.1,3.3-1.8h0.1c0.3,1.4,1.2,2,2.3,2c1.4,0,2-1,2.2-1.5c0.2-0.3,0.1-0.5,0-0.6l-0.3-0.3c-0.1-0.1-0.2,0-0.3,0.1
				c-0.2,0.2-0.4,0.5-0.9,0.4c-0.6,0-1.1-0.3-1.1-2.2v-1.8H65.1z"/>
		</g>
		<g>
			<path class="st2" d="M278.8,66.4H278v2h-0.3v-2h-0.6v-0.3h1.7L278.8,66.4L278.8,66.4z"/>
			<path class="st2" d="M279.4,66.1l0.7,2l0,0l0.7-2h0.5v2.2H281v-0.8v-0.9l0,0l-0.7,1.7H280l-0.7-1.7l0,0v0.9v0.8H279v-2.2H279.4z"
				/>
			<path class="st2" d="M266.2,75.1l8.2-9.2l-6.2-1.3l-7.1,8V52.8l-5.8,2.4v24.2c-0.5-1.6-1-2.4-2.9-3.7c-1.9-1.3-7.1-2-8.2-3.1
				c-1.2-1.3-0.5-3.3,2.1-3.3c3,0,4.5,2.1,4.5,2.1l4.3-3.8c0,0-1.8-2.5-7.1-3.2c-3.5-0.4-11.2,0.3-11.2,7.9c0,5.5,7.2,6.1,10.1,7.2
				c2.6,1,2.5,4-1.7,3.8c-3.5-0.1-5.2-2.7-5.2-2.7l-4.3,4.2c0,0,2.3,3.5,9.9,3.5c6.4,0,9.1-3,9.6-5.7v5.2h5.8V77.6l9.3,10.2h7.3
				L266.2,75.1z"/>
			<path class="st2" d="M225.9,82.1c-2.6,0-4.6-1.9-5.3-3.5h11.1h3.9h1.7c0.1-0.8,0.3-1.2,0.3-1.9c0-7.3-5.4-12.2-11.8-12.2
				c-5.7,0-10.1,4-11.4,9.3v-21l-5.9,2.3V66c-1.5-0.8-3.8-1.5-5.8-1.5c-6.7,0-11.8,5.4-11.8,11.9s5.3,11.5,11.8,11.5
				c5.8,0,10.7-4.4,11.5-9.9c0.9,5.5,5.7,9.9,11.6,9.9c4.7,0,8.6-2.8,10.3-6.1l-6.3-1.3C228.9,81.5,227.6,82.1,225.9,82.1z
				 M226,70.4c2.4,0,4.5,1.4,5.4,3.6h-10.8C221.5,71.7,223.6,70.4,226,70.4z M205.5,81.5c-0.8,0.4-1.7,0.7-2.7,0.7
				c-3.4,0-6-2.7-6-5.9c0-3.3,2.6-5.9,6-5.9s5.9,2.7,5.9,5.9c0,1.4-0.3,2.5-1.1,3.5c0.2,1.5,1.7,2.3,1.7,2.3S207.7,82.9,205.5,81.5z
				"/>
		</g>
	</g>
</g>
</svg>
