<?xml version="1.0" encoding="utf-8"?>
<!-- Generator: Adobe Illustrator 20.1.0, SVG Export Plug-In . SVG Version: 6.00 Build 0)  -->
<svg version="1.1" id="Layer_1" xmlns="http://www.w3.org/2000/svg" xmlns:xlink="http://www.w3.org/1999/xlink" x="0px" y="0px"
	 viewBox="0 0 150 40" style="enable-background:new 0 0 150 40;" xml:space="preserve">
<style type="text/css">
	.st0{fill:#3B6759;}
	.st1{fill:#757371;}
</style>
<g>
	<path class="st0" d="M11.3,5.9c0.5-0.5,1.3-0.7,2-0.7c4.8,0,9.6,0,14.5,0C27.5,6.2,27.3,7,27,7.9c-0.4,1.3-1.6,2.5-3,2.6
		c-4.1,0-8.2,0-12.3,0c-0.8,0-1.5,0.3-2.3,0.6c0.1-0.8,0.4-1.6,0.6-2.4C10.3,7.7,10.5,6.7,11.3,5.9L11.3,5.9z"/>
	<path class="st0" d="M69.5,5.3c1.6,0,3.2,0,4.8,0c1.5,3.4,3.1,6.7,4.6,10c0.1-0.2,0.2-0.4,0.2-0.7c0.8-3.1,1.7-6.2,2.5-9.4
		c1.7,0,3.4,0,5.1,0c-1,3.8-2,7.6-3,11.4c-0.6,2.3-1.2,4.6-1.9,6.9c-1.5,0.1-3,0-4.4,0c-1.7-3.4-3.2-7-4.9-10.4
		c-1,3.4-1.8,6.9-2.8,10.4c-1.7,0.1-3.4,0-5.1,0C66.2,17.5,67.8,11.4,69.5,5.3L69.5,5.3z"/>
	<path class="st0" d="M87.7,9.7c0.4-1.5,0.8-3,1.2-4.5c5.3,0,10.7,0,16,0c-0.4,1.5-0.8,3-1.2,4.5c-1.8,0-3.6,0-5.4,0
		c-0.5,1.6-0.9,3.3-1.4,5c-0.8,2.9-1.6,5.9-2.4,8.8c-1.7,0-3.4,0-5.1,0c1.2-4.6,2.5-9.2,3.7-13.8C91.3,9.7,89.5,9.7,87.7,9.7
		L87.7,9.7z"/>
	<path class="st0" d="M107.1,5.3c1.7,0,3.4,0,5.1,0c-1.6,6.1-3.3,12.2-4.9,18.3c-1.7,0-3.4,0-5.1,0C103.8,17.5,105.5,11.4,107.1,5.3
		L107.1,5.3z"/>
	<path class="st0" d="M114.4,5.3c4.9,0,9.8,0,14.7,0c-0.4,1.4-0.8,2.9-1.2,4.3c-3.2,0-6.4,0-9.6,0c-0.2,0.9-0.5,1.8-0.7,2.7
		c2.9,0,5.8,0,8.7,0c-0.3,1.4-0.7,2.7-1.1,4.1c-2.9,0-5.8,0-8.7,0c-0.2,1-0.5,1.9-0.8,2.9c3.2,0,6.5,0,9.7,0
		c-0.4,1.4-0.7,2.9-1.2,4.3c-4.9,0-9.8,0-14.8,0C111.1,17.5,112.8,11.4,114.4,5.3L114.4,5.3z"/>
	<path class="st0" d="M63.5,8.4c-1.4-2-3.9-3.2-6.3-3.4h-1.8c-2.2,0.2-4.4,1-6.1,2.5c-2.5,2-4,5.2-3.9,8.4c0,1.8,0.6,3.5,1.7,4.9
		c1.3,1.7,3.3,2.7,5.3,3c2.9,0.5,5.9-0.3,8.3-2c2.2-1.7,3.8-4.2,4.2-7C65.3,12.6,64.9,10.2,63.5,8.4z M57,18.7
		c-1.7,1-4.2,0.9-5.5-0.7c-1-1.3-1-3.2-0.4-4.7c0.7-1.8,2.2-3.4,4.2-3.7c1.2-0.2,2.4,0.1,3.4,0.8c0.9,0.8,1.3,2,1.3,3.1
		C59.8,15.6,58.7,17.6,57,18.7z"/>
	<path class="st0" d="M44.5,9.9c-0.2-1.4-1-2.7-2.2-3.4c-1.6-1-3.6-1.2-5.5-1.2c-2.3,0-4.6,0-6.9,0c-0.1,0.3-0.2,0.6-0.3,0.9
		C28.1,12,26.5,17.8,25,23.6c1.7,0,3.4,0,5.1,0c0.5-1.8,1-3.6,1.5-5.5c0.7-0.1,1.5,0,2.2,0c0.8,1.8,1.6,3.7,2.4,5.5
		c1.9,0,3.8,0,5.6,0c-0.9-2.1-1.9-4.1-2.8-6.1c1.5-0.4,3-1.2,4.1-2.4C44.3,13.6,44.7,11.7,44.5,9.9z M38.6,13c-0.8,0.8-1.9,1-2.9,1
		c-1,0-2,0-3.1,0c0.4-1.4,0.8-2.9,1.2-4.3c1,0,2,0,3,0c0.7,0,1.5,0.1,2,0.6C39.5,11,39.4,12.3,38.6,13z"/>
	<path class="st0" d="M145.8,10.9c0.2-1.6-0.6-3.3-1.9-4.2c-1.6-1.1-3.6-1.4-5.5-1.4c-2.4,0-4.8,0-7.2,0c-1.6,6.1-3.3,12.2-4.9,18.3
		c1.7,0,3.4,0,5.1,0c0.5-1.8,1-3.7,1.5-5.5c0.6,0,1.2,0,1.7,0c0.2,0,0.5-0.1,0.5,0.2c0.7,1.6,1.4,3.3,2.1,4.9
		c0.1,0.2,0.1,0.5,0.4,0.4c1.8,0,3.6,0,5.4,0c-0.9-2.1-1.9-4.1-2.8-6.1c1.1-0.4,2.2-0.8,3-1.5C145.1,14.8,146,12.8,145.8,10.9z
		 M140.1,13c-0.7,0.8-1.8,1-2.9,1.1c-1.1,0-2.1,0-3.2,0c0.4-1.4,0.8-2.9,1.2-4.3c1,0,2,0,2.9,0c0.7,0,1.4,0.1,2,0.6
		C140.9,11,140.7,12.3,140.1,13z"/>
	<path class="st0" d="M9.4,12.5c0.4-0.5,1.1-0.7,1.8-0.7c4.7,0,9.4,0,14.1,0c-0.4,1.4-0.6,2.9-1.5,4c-0.6,0.7-1.4,1.2-2.3,1.2
		c-3.8,0-7.6,0-11.4,0c-0.9,0-1.7,0.3-2.5,0.6c0.2-0.8,0.4-1.7,0.6-2.5C8.5,14.2,8.8,13.2,9.4,12.5L9.4,12.5z"/>
	<path class="st0" d="M7.5,19.2c0.5-0.7,1.4-0.9,2.3-0.9c2.1,0,4.2,0,6.3,0c-0.3,1.1-0.5,2.3-1,3.4c-0.5,1-1.6,1.8-2.7,1.8
		c-2.1,0-4.2,0-6.2,0v-0.3C6.5,21.9,6.6,20.4,7.5,19.2L7.5,19.2z"/>
	<path class="st1" d="M139.2,28.7c1.5-0.6,3.3-0.3,4.5,0.7c-0.3,0.5-0.7,1-1.1,1.5c-0.7-0.4-1.6-0.9-2.4-0.6c-0.4,0.1-0.4,0.6,0,0.8
		c1,0.4,2.2,0.4,3.1,1.1c1.1,0.9,0.8,2.9-0.5,3.5c-0.7,0.5-1.5,0.3-2.3,0.3c-1.1,0.1-2.1-0.4-3-1.1c0.4-0.5,0.7-0.9,1.1-1.4
		c0.8,0.5,1.6,0.9,2.6,0.9c0.3,0,0.6-0.1,0.6-0.4c0.1-0.4-0.3-0.5-0.6-0.6c-1-0.3-2.2-0.4-3-1.3C137.5,30.9,138,29.2,139.2,28.7
		L139.2,28.7z"/>
	<path class="st1" d="M97.7,28.5c0.7,0,1.4,0,2.1,0c0,2.4,0,4.9,0,7.3c-0.7,0-1.4,0.1-2.1,0C97.7,33.4,97.7,31,97.7,28.5L97.7,28.5z
		"/>
	<path class="st1" d="M110.1,28.5c0.7,0,1.4,0,2,0c0,1.8,0,3.6,0,5.5c1.2,0.1,2.4,0,3.5,0c0,0.6,0,1.2,0,1.9c-1.1,0.1-2.2-0.1-3.3,0
		c-0.8,0.1-1.5,0-2.3,0C110.1,33.4,110.1,31,110.1,28.5L110.1,28.5z"/>
	<path class="st1" d="M117.3,28.5c0.7,0,1.4,0,2.1,0c0,2.4,0,4.9,0,7.3c-0.7,0.1-1.4,0-2.1,0C117.3,33.4,117.3,31,117.3,28.5
		L117.3,28.5z"/>
	<path class="st1" d="M121.4,28.5c0.7,0,1.3-0.1,2,0.1c1,1.2,1.8,2.5,2.9,3.6c0.1-1.2,0-2.4,0-3.6c0.7,0,1.4,0,2,0
		c0,2.4,0,4.9,0,7.3c-0.6,0-1.3,0.1-1.8-0.1c-1-1.3-2-2.6-3-3.8c-0.1,1.3,0,2.6,0,3.9c-0.7,0-1.4,0-2,0
		C121.4,33.4,121.4,31,121.4,28.5L121.4,28.5z"/>
	<path class="st1" d="M130.4,28.5c2,0,4,0,5.9,0c0,0.6,0,1.2,0,1.7c-1.3,0-2.6,0-3.8,0c0,0.4,0,0.7,0,1.1c1.2,0,2.3,0,3.5,0
		c0,0.5,0,1.1,0,1.6c-1.2,0-2.3,0-3.4,0c0,0.4,0,0.7,0,1.1c1.3,0,2.6-0.1,3.9,0c0,0.6,0,1.1,0,1.7c-1.3,0.2-2.6,0-3.8,0.1
		c-0.7,0-1.4,0-2.2-0.1C130.4,33.4,130.4,31,130.4,28.5L130.4,28.5z"/>
	<path class="st1" d="M106.8,33.3c0.6-0.4,1.2-0.9,1.4-1.6c0.1-0.7,0.1-1.6-0.4-2.2c-0.6-0.7-1.6-1-2.5-1c-1.2,0-2.4,0-3.6,0
		c0,2.4,0,4.9,0,7.3c0.7,0.1,1.4,0.1,2.1,0c0-0.7,0-1.5,0-2.2c0.3,0,0.6-0.1,0.8,0c0.5,0.7,1,1.4,1.5,2.2c0.8,0.1,1.6,0,2.4,0
		C108,35,107.4,34.2,106.8,33.3z M105.8,31.9c-0.6,0.2-1.3,0.1-1.9,0.1c0-0.5,0-1.1,0-1.6c0.6,0,1.2-0.1,1.8,0.1
		C106.4,30.5,106.4,31.6,105.8,31.9z"/>
	<path class="st1" d="M93,28.4c-0.7,0.1-1.4-0.1-2,0.1C90,31,89,33.4,88,35.8c0.7,0,1.5,0.1,2.2,0c0.1-0.4,0.3-0.9,0.5-1.3
		c0.9-0.1,1.9,0,2.8,0c0.2,0.4,0.3,0.9,0.5,1.3c0.7,0.1,1.5,0.1,2.2,0C95.1,33.4,94.1,30.9,93,28.4z M91.3,32.9
		c0.2-0.6,0.5-1.3,0.8-1.9c0.3,0.6,0.5,1.3,0.7,1.9C92.3,32.9,91.8,32.9,91.3,32.9z"/>
</g>
</svg>
