<?xml version="1.0" encoding="utf-8"?>
<!-- Generator: Adobe Illustrator 20.0.0, SVG Export Plug-In . SVG Version: 6.00 Build 0)  -->
<svg version="1.1" id="Layer_1" xmlns="http://www.w3.org/2000/svg" xmlns:xlink="http://www.w3.org/1999/xlink" x="0px" y="0px"
	 viewBox="0 0 322 103" style="enable-background:new 0 0 322 103;" xml:space="preserve">
<style type="text/css">
	.st0{fill:#231F20;}
	.st1{fill:#D32028;}
</style>
<g id="IGN">
	<g>
		<path class="st0" d="M164.4,58.6V46.9h31.3c3.2,0,5.8,2.6,5.8,5.7v13.8c0,7.1-5.7,13-12.9,13h-20c-14.8,0-26.8-12-26.8-26.8
			s12.1-26.8,26.8-26.8h31v12.3h-31c-8,0-14.5,6.5-14.5,14.5s6.5,14.5,14.5,14.5h20.7v-8.7h-24.9V58.6z"/>
		<path class="st0" d="M137.6,26h-12.2v9.2v38.7c0,3.1,2.6,5.7,5.7,5.7h0.3h6.2V30C137.6,29.9,137.6,26,137.6,26L137.6,26z"/>
		<path class="st0" d="M258.8,26h-6.5v41.3c0,0.1,0,0.2-0.1,0.3c-0.1,0.2-0.4,0.4-0.7,0.4s-0.5-0.1-0.7-0.5l-20.4-35.8
			c-2.3-3.8-6.4-6.3-11.1-6.3h-0.2c-7.1,0-12.9,5.8-12.9,12.9v35.5c0,3.1,2.6,5.7,5.7,5.7h6.5V38.3c0-0.1,0.1-0.3,0.1-0.4
			c0.1-0.3,0.4-0.4,0.7-0.4s0.6,0.1,0.7,0.4L240.5,74c2.3,3.8,6.3,6.1,11,6.1h0.2c7.1,0,12.9-5.8,12.9-12.9V31.7
			C264.5,28.6,261.9,26,258.8,26L258.8,26z"/>
		<path class="st0" d="M270.1,28.7h-0.5v-0.9h0.5c0.3,0,0.5,0.2,0.5,0.5C270.6,28.5,270.4,28.7,270.1,28.7L270.1,28.7z M270.6,28.9
			c0.3-0.1,0.5-0.4,0.5-0.7c0-0.5-0.4-0.9-0.9-0.9H269v2.9h0.5V29h0.4l0.5,1.2h0.6L270.6,28.9L270.6,28.9z"/>
		<path class="st0" d="M270,31.1c-1.3,0-2.2-1-2.2-2.3s1-2.3,2.2-2.3c1.3,0,2.2,1,2.2,2.3C272.2,30.1,271.3,31.1,270,31.1L270,31.1z
			 M270,26c-1.5,0-2.8,1.2-2.8,2.8c0,1.5,1.2,2.8,2.8,2.8c1.5,0,2.8-1.2,2.8-2.8C272.8,27.3,271.5,26,270,26L270,26z"/>
		<path class="st1" d="M64.3,41.1c1.6-2.4,3.7-4.5,6.1-6.1c0.4-3.2,0.8-6.1,1.4-8.7c-7.4,2.9-13.3,8.8-16.2,16.2
			C58.2,41.9,61.1,41.5,64.3,41.1L64.3,41.1z"/>
		<path class="st1" d="M93.9,34.9C93.9,35,93.9,35,93.9,34.9c2.4,1.7,4.5,3.7,6.1,6.2c3.2,0.4,6.1,0.8,8.7,1.4
			c-2.9-7.4-8.8-13.3-16.3-16.2C93,28.9,93.5,31.8,93.9,34.9L93.9,34.9z"/>
		<path class="st1" d="M70.4,70.7c-2.4-1.6-4.5-3.7-6.1-6.1c0,0,0,0-0.1,0c-3.2-0.4-6.1-0.9-8.6-1.4c2.9,7.4,8.8,13.3,16.2,16.2
			C71.2,76.8,70.8,73.9,70.4,70.7L70.4,70.7z"/>
		<g>
			<path class="st1" d="M100.1,64.6C100.1,64.6,100,64.6,100.1,64.6c-1.7,2.4-3.8,4.5-6.2,6.1c0,0,0,0,0,0.1
				c-0.4,3.2-0.9,6.1-1.5,8.6c7.4-2.9,13.4-8.8,16.3-16.3C106.2,63.7,103.3,64.2,100.1,64.6L100.1,64.6z"/>
			<path class="st1" d="M114.5,47.6c-5-2.3-12.6-3.2-15.1-3.5c-0.5-0.1-1-0.1-1.5-0.1l-8,8.9l8,8.9c0.5,0,1.1-0.1,1.7-0.2
				c2.5-0.3,9.9-1.2,14.9-3.5V47.6L114.5,47.6z M66.4,43.9c-0.5,0-0.9,0-1.5,0.1c-2.6,0.3-10.1,1.2-15.1,3.5V58
				c5,2.3,12.4,3.2,14.9,3.5c0.6,0.1,1.2,0.2,1.7,0.2l8-8.9L66.4,43.9L66.4,43.9z M73.3,68.6c0,0.5,0,0.9,0.1,1.5
				c0.3,2.6,1.2,10.1,3.5,15.1h10.5c2.3-5,3.2-12.4,3.5-14.9c0.1-0.6,0.2-1.2,0.2-1.7l-8.9-8L73.3,68.6L73.3,68.6z M76.9,20.5h10.5
				c2.3,5,3.2,12.4,3.5,14.9c0.1,0.6,0.2,1.2,0.2,1.7l-8.9,8l-8.9-8c0-0.5,0-0.9,0.1-1.5C73.7,33.1,74.5,25.5,76.9,20.5L76.9,20.5z"
				/>
		</g>
	</g>
</g>
</svg>
