<?xml version="1.0" encoding="iso-8859-1"?>
<!-- Generator: Adobe Illustrator 16.0.0, SVG Export Plug-In . SVG Version: 6.00 Build 0)  -->
<!DOCTYPE svg PUBLIC "-//W3C//DTD SVG 1.1//EN" "http://www.w3.org/Graphics/SVG/1.1/DTD/svg11.dtd">
<svg version="1.1"
	 id="svg7636" inkscape:version="0.48.4 r9939" sodipodi:docname="Microsoft Store 2012.svg" xmlns:rdf="http://www.w3.org/1999/02/22-rdf-syntax-ns#" xmlns:sodipodi="http://sodipodi.sourceforge.net/DTD/sodipodi-0.dtd" xmlns:dc="http://purl.org/dc/elements/1.1/" xmlns:inkscape="http://www.inkscape.org/namespaces/inkscape" xmlns:svg="http://www.w3.org/2000/svg" xmlns:cc="http://creativecommons.org/ns#"
	 xmlns="http://www.w3.org/2000/svg" xmlns:xlink="http://www.w3.org/1999/xlink" x="0px" y="0px" width="568.187px"
	 height="125.446px" viewBox="0 0 568.187 125.446" style="enable-background:new 0 0 568.187 125.446;" xml:space="preserve">
<sodipodi:namedview  id="base" inkscape:window-y="-8" inkscape:window-width="1920" fit-margin-bottom="0" inkscape:pageshadow="2" fit-margin-right="0" inkscape:window-maximized="1" inkscape:window-x="-8" inkscape:window-height="1018" inkscape:pageopacity="0.0" inkscape:document-units="px" inkscape:current-layer="layer1" fit-margin-left="0" bordercolor="#666666" inkscape:cx="425.20346" showgrid="false" borderopacity="1.0" pagecolor="#ffffff" inkscape:cy="176.54814" inkscape:zoom="1.4" fit-margin-top="0">
	</sodipodi:namedview>
<g id="layer1" transform="translate(-3.4374995e-8,-926.91602)" inkscape:groupmode="layer" inkscape:label="Layer 1">
	<g id="g7715" transform="translate(-67.373323,311.03337)">
		<g id="g7773">
			<path id="text7655" style="fill:#231F20;" d="M462.217,656.164c-2.665,0-4.874,0.952-6.656,2.875
				c-1.783,1.923-2.656,4.533-2.656,7.844v5.125h-5.062v4.312h5.062v27.282h4.656V676.32h5.812h7.656v18.688
				c0,6.17,2.562,9.281,7.719,9.281c1.821,0,3.325-0.342,4.438-1v-4.312c-0.863,0.699-1.905,1.031-3.094,1.031
				c-1.554,0-2.673-0.439-3.344-1.344c-0.671-0.905-1-2.414-1-4.531V676.32h7.438v-4.312h-7.438v-9.344l-4.719,1.625v7.719h-7.656
				h-5.812v-4.875c0-4.463,1.64-6.688,4.938-6.688c1.169,0,2.235,0.257,3.156,0.812v-4.562
				C464.811,656.325,463.655,656.164,462.217,656.164z M297.53,657.414c-0.844,0-1.594,0.311-2.188,0.938
				c-0.595,0.627-0.875,1.429-0.875,2.375c0,0.946,0.28,1.727,0.875,2.344c0.594,0.617,1.344,0.906,2.188,0.906
				c0.862,0,1.614-0.3,2.219-0.938c0.604-0.638,0.906-1.408,0.906-2.312c0-0.946-0.303-1.748-0.906-2.375
				C299.144,657.724,298.392,657.414,297.53,657.414z M518.716,658.633c-1.782,0-3.564,0.214-5.281,0.688
				c-1.716,0.473-3.22,1.189-4.562,2.156c-1.342,0.967-2.425,2.196-3.25,3.688c-0.824,1.491-1.25,3.266-1.25,5.281
				c0,1.646,0.286,3.058,0.812,4.281c0.527,1.224,1.236,2.314,2.156,3.281c0.921,0.967,2.035,1.854,3.281,2.657
				c1.247,0.802,2.562,1.594,4,2.375c1.361,0.74,2.634,1.456,3.812,2.125c1.18,0.668,2.2,1.363,3.062,2.094
				c0.863,0.729,1.543,1.553,2.031,2.438c0.489,0.884,0.75,1.9,0.75,3.094c0,2.221-0.752,3.941-2.219,5.125
				c-1.466,1.182-3.715,1.75-6.688,1.75c-0.862,0-1.796-0.065-2.812-0.25c-1.016-0.186-1.993-0.474-3-0.812
				c-1.006-0.34-1.964-0.757-2.875-1.25c-0.91-0.494-1.723-1.039-2.375-1.656v6.125c0.537,0.391,1.266,0.743,2.156,1.062
				c0.892,0.318,1.848,0.564,2.844,0.781c0.997,0.215,1.979,0.387,2.938,0.5c0.959,0.113,1.755,0.188,2.406,0.188
				c1.956,0,3.799-0.234,5.562-0.656c1.765-0.422,3.336-1.086,4.688-2.031c1.352-0.947,2.424-2.176,3.219-3.688
				c0.796-1.512,1.188-3.383,1.188-5.562c0-1.646-0.29-3.1-0.875-4.375c-0.584-1.275-1.378-2.42-2.375-3.469
				c-0.996-1.049-2.146-2.012-3.469-2.875c-1.322-0.864-2.742-1.688-4.219-2.469c-1.438-0.761-2.71-1.457-3.812-2.094
				c-1.102-0.638-2.014-1.29-2.781-1.969c-0.767-0.679-1.356-1.427-1.75-2.25c-0.393-0.823-0.594-1.807-0.594-2.938
				c0-1.213,0.264-2.25,0.781-3.094s1.207-1.528,2.031-2.062c0.825-0.535,1.759-0.92,2.812-1.156
				c1.055-0.236,2.103-0.344,3.156-0.344c3.815,0,6.94,0.878,9.375,2.688v-5.812C525.732,659.146,522.781,658.633,518.716,658.633z
				 M242.842,659.351v44.25h4.656v-29.625c0-4.01-0.097-6.888-0.25-8.656h0.125c0.422,2.036,0.815,3.544,1.219,4.531l14.062,33.75
				h2.375l14.094-34c0.364-0.864,0.789-2.286,1.25-4.281h0.125c-0.269,3.394-0.438,6.249-0.438,8.594v29.688h4.812v-44.25h-6.062
				l-12.906,30.719c-0.499,1.192-1.145,3.01-1.969,5.438h-0.156c-0.288-1.173-0.929-2.947-1.906-5.312l-12.656-30.844H242.842z
				 M543.154,662.664l-4.719,1.625v7.719h-5.062v4.312h5.062v18.688c0,6.17,2.593,9.281,7.75,9.281c1.822,0,3.264-0.342,4.375-1
				v-4.312c-0.862,0.699-1.904,1.031-3.094,1.031c-1.553,0-2.641-0.439-3.312-1.344c-0.671-0.905-1-2.414-1-4.531V676.32h7.406
				v-4.312h-7.406V662.664z M322.686,671.258c-4.64,0-8.377,1.593-11.156,4.75c-2.78,3.157-4.188,7.329-4.188,12.532
				c0,4.668,1.296,8.475,3.875,11.406c2.578,2.93,5.988,4.406,10.188,4.406c3.105,0,5.769-0.76,8.031-2.219v-4.812
				c-2.263,1.83-4.682,2.75-7.25,2.75c-3.049,0-5.47-1.049-7.281-3.188c-1.812-2.139-2.719-5.08-2.719-8.781
				c0-3.764,0.979-6.781,2.906-9.094c1.927-2.313,4.396-3.469,7.406-3.469c2.492,0,4.814,0.792,7,2.438v-5.156
				C327.524,671.792,325.274,671.258,322.686,671.258z M370.124,671.258c-4.602,0-8.266,1.487-10.969,4.469
				c-2.704,2.982-4.062,7.131-4.062,12.438c0,4.873,1.308,8.799,3.906,11.75c2.598,2.951,6.085,4.438,10.438,4.438
				c4.467,0,8.001-1.529,10.656-4.562s4-7.087,4-12.125c0-5.143-1.225-9.163-3.688-12.063
				C377.941,672.701,374.513,671.258,370.124,671.258z M401.186,671.258c-1.438,0-2.836,0.203-4.188,0.594s-2.571,0.979-3.625,1.75
				c-1.055,0.771-1.898,1.733-2.531,2.875s-0.938,2.426-0.938,3.907c0,1.213,0.164,2.282,0.5,3.188
				c0.335,0.904,0.838,1.728,1.5,2.438c0.661,0.709,1.45,1.34,2.438,1.906c0.987,0.564,2.165,1.132,3.469,1.688
				c0.939,0.391,1.81,0.765,2.625,1.125c0.814,0.359,1.521,0.766,2.125,1.219c0.604,0.452,1.082,0.977,1.438,1.562
				c0.354,0.586,0.531,1.281,0.531,2.125c0,2.961-2.078,4.438-6.219,4.438c-3.087,0-5.9-0.996-8.469-3.031v5.406
				c2.224,1.254,4.846,1.906,7.875,1.906c1.533,0,3.006-0.193,4.406-0.562c1.399-0.371,2.645-0.959,3.719-1.719
				c1.073-0.762,1.92-1.692,2.562-2.844c0.642-1.152,0.969-2.531,0.969-4.094c0-1.275-0.201-2.356-0.594-3.281
				c-0.394-0.926-0.959-1.76-1.688-2.469c-0.729-0.71-1.621-1.342-2.656-1.906c-1.035-0.566-2.196-1.122-3.5-1.656
				c-0.979-0.412-1.858-0.775-2.625-1.125c-0.768-0.35-1.401-0.756-1.938-1.188c-0.537-0.432-0.941-0.914-1.219-1.469
				c-0.278-0.556-0.438-1.24-0.438-2.062c0-0.658,0.159-1.268,0.438-1.813c0.277-0.545,0.647-1.016,1.156-1.406
				c0.508-0.391,1.134-0.69,1.844-0.906c0.709-0.216,1.524-0.312,2.406-0.312c2.818,0,5.271,0.759,7.438,2.281v-5.125
				C405.985,671.749,403.736,671.258,401.186,671.258z M429.592,671.258c-4.602,0-8.266,1.487-10.969,4.469
				c-2.704,2.982-4.062,7.131-4.062,12.438c0,4.873,1.308,8.799,3.906,11.75c2.598,2.951,6.085,4.438,10.438,4.438
				c4.467,0,8.001-1.529,10.656-4.562s4-7.087,4-12.125c0-5.143-1.225-9.163-3.688-12.063
				C437.41,672.701,433.982,671.258,429.592,671.258z M569.935,671.258c-4.601,0-8.265,1.487-10.969,4.469
				c-2.703,2.982-4.062,7.131-4.062,12.438c0,4.873,1.309,8.799,3.906,11.75c2.599,2.951,6.086,4.438,10.438,4.438
				c4.468,0,8.001-1.529,10.656-4.562c2.656-3.033,4-7.087,4-12.125c0-5.143-1.224-9.163-3.688-12.063
				C577.753,672.701,574.326,671.258,569.935,671.258z M623.498,671.258c-3.854,0-7.12,1.561-9.719,4.656
				c-2.598,3.095-3.906,7.084-3.906,12c0,5.203,1.186,9.256,3.562,12.125c2.378,2.869,5.684,4.312,9.844,4.312
				c4.257,0,7.693-1.016,10.281-3.031v-4.75c-2.779,2.344-5.839,3.5-9.156,3.5c-2.952,0-5.281-0.963-6.969-2.875
				c-1.687-1.913-2.579-4.609-2.656-8.125h20.781v-2.656c0-4.751-1.016-8.452-3.125-11.125
				C630.327,672.615,627.352,671.258,623.498,671.258z M349.186,671.445c-1.707,0-3.245,0.631-4.625,1.875
				c-1.381,1.244-2.423,2.966-3.094,5.188h-0.125v-6.5h-4.719v31.594h4.719v-16.094c0-3.518,0.68-6.309,2.031-8.344
				c1.352-2.037,3.018-3.063,5.031-3.063c1.553,0,2.769,0.353,3.594,1.031v-5.25C351.346,671.594,350.413,671.445,349.186,671.445z
				 M603.966,671.445c-1.706,0-3.244,0.631-4.625,1.875c-1.38,1.244-2.422,2.966-3.094,5.188h-0.094v-6.5h-4.719v31.594h4.719
				v-16.094c0-3.518,0.68-6.309,2.031-8.344c1.352-2.037,3.05-3.063,5.062-3.063c1.554,0,2.738,0.353,3.562,1.031v-5.25
				C606.159,671.594,605.194,671.445,603.966,671.445z M295.124,672.008v31.594h4.688v-31.594H295.124z M369.749,675.539
				c3.048,0,5.423,1.049,7.062,3.188c1.639,2.139,2.438,5.176,2.438,9.125c0,3.906-0.799,6.943-2.438,9.062
				c-1.64,2.117-4.015,3.156-7.062,3.156c-2.991,0-5.374-1.061-7.156-3.219c-1.783-2.16-2.656-5.133-2.656-8.875
				c0-3.887,0.86-6.914,2.625-9.125C364.325,676.64,366.719,675.539,369.749,675.539z M429.217,675.539
				c3.048,0,5.423,1.049,7.062,3.188c1.639,2.139,2.438,5.176,2.438,9.125c0,3.906-0.799,6.943-2.438,9.062
				c-1.64,2.117-4.015,3.156-7.062,3.156c-2.991,0-5.374-1.061-7.156-3.219c-1.783-2.16-2.656-5.133-2.656-8.875
				c0-3.887,0.86-6.914,2.625-9.125C423.793,676.64,426.188,675.539,429.217,675.539z M569.56,675.539
				c3.049,0,5.424,1.049,7.062,3.188c1.64,2.139,2.438,5.176,2.438,9.125c0,3.906-0.798,6.943-2.438,9.062
				c-1.639,2.117-4.014,3.156-7.062,3.156c-2.99,0-5.373-1.061-7.156-3.219c-1.782-2.16-2.656-5.133-2.656-8.875
				c0-3.887,0.861-6.914,2.625-9.125C564.137,676.64,566.531,675.539,569.56,675.539z M623.404,675.539
				c2.301,0,4.081,0.782,5.375,2.406c1.295,1.625,1.95,3.923,1.969,6.844h-15.906c0.365-2.756,1.322-5.012,2.875-6.719
				C619.27,676.363,621.18,675.539,623.404,675.539z"/>
			<g id="g7622" transform="matrix(0.35622495,0,0,0.35062252,7.3271549,460.03094)">
				<path id="rect7572" inkscape:connector-curvature="0" style="fill:#D03F42;" d="M168.563,444.5v171.437H340V444.5H168.563z"/>
				<path id="rect7574" inkscape:connector-curvature="0" style="fill:#DA773C;" d="M216.28,489.375v126.687h123.844V489.375H216.28
					z"/>
				<path id="rect7576" inkscape:connector-curvature="0" style="fill:#E39735;" d="M257.594,532.093v84.094h82.656v-84.094H257.594
					z"/>
				<path id="rect7578" inkscape:connector-curvature="0" style="fill:#3C68AC;" d="M168.563,630.876v171.403H340V630.876H168.563z"
					/>
				<path id="rect7580" inkscape:connector-curvature="0" style="fill:#467BC0;" d="M216.28,630.718v126.719h123.844V630.718H216.28
					z"/>
				<path id="rect7582" inkscape:connector-curvature="0" style="fill:#84ACDD;" d="M257.594,630.593v84.094h82.656v-84.094H257.594
					z"/>
				<path id="rect7584" inkscape:connector-curvature="0" style="fill:#7AB951;" d="M353.313,444.5v171.437H524.75V444.5H353.313z"
					/>
				<path id="rect7586" inkscape:connector-curvature="0" style="fill:#91BF4E;" d="M353.187,489.375v126.687h123.844V489.375
					H353.187z"/>
				<path id="rect7588" inkscape:connector-curvature="0" style="fill:#C5D743;" d="M353.063,532.093v84.094h82.654v-84.094H353.063
					z"/>
				<path id="rect7590" inkscape:connector-curvature="0" style="fill:#ECB842;" d="M353.313,630.876v171.403H524.75V630.876
					H353.313z"/>
				<path id="rect7592" inkscape:connector-curvature="0" style="fill:#F3D332;" d="M353.187,630.718v126.719h123.844V630.718
					H353.187z"/>
				<path id="rect7594" inkscape:connector-curvature="0" style="fill:#F8E67A;" d="M353.063,630.593v84.094h82.654v-84.094H353.063
					z"/>
			</g>
		</g>
	</g>
</g>
</svg>
