<?xml version="1.0" encoding="utf-8"?>
<!-- Generator: Adobe Illustrator 20.0.0, SVG Export Plug-In . SVG Version: 6.00 Build 0)  -->
<svg version="1.1" id="Layer_1" xmlns="http://www.w3.org/2000/svg" xmlns:xlink="http://www.w3.org/1999/xlink" x="0px" y="0px"
	 viewBox="0 0 322 103" style="enable-background:new 0 0 322 103;" xml:space="preserve">
<style type="text/css">
	.st0{fill:#F25022;}
	.st1{fill:#80BA01;}
	.st2{fill:#777777;}
	.st3{fill:#FEFEFE;}
	.st4{fill:#02A4EF;}
	.st5{fill:#FFB902;}
</style>
<g id="Microsoft">
	<g>
		<path class="st0" d="M22.3,22h28.3c0,9.4,0,18.9,0,28.3c-9.4,0-18.9,0-28.3,0V22L22.3,22z"/>
		<path class="st1" d="M53.5,22h28.3c0,9.4,0,18.9,0,28.3c-9.4,0-18.9,0-28.3,0C53.5,40.8,53.5,31.4,53.5,22L53.5,22z"/>
		<path class="st2" d="M277.4,32.7c2.6-1.7,6-1.9,8.9-1c0,1.7,0,3.5,0,5.2c-1.4-0.6-3-1-4.5-0.4c-1.2,0.5-1.9,1.7-2,2.9
			c-0.2,1.5-0.1,3.1-0.1,4.6c3,0,6,0,9,0c0-1.9,0-3.9,0-5.8c2-0.6,4-1.2,6.1-1.8c0,2.6,0,5.1,0,7.7c2,0,4,0,6.1,0v5
			c-2-0.1-4.1,0-6.1,0c0,2.9,0,5.7,0,8.6c0,1.6-0.1,3.2,0.1,4.7c0.1,0.9,0.5,2,1.3,2.4c1.5,0.8,3.3,0.5,4.7-0.4v5
			c-1.7,0.8-3.7,1-5.6,0.9c-1.8-0.1-3.7-0.8-4.8-2.2c-1.4-1.6-1.7-3.8-1.7-5.8c0-4.4,0-8.8,0-13.2c-3,0-6,0-9,0c0,6.9,0,13.8,0,20.6
			c-2,0-4.1,0-6.1,0c0-6.9,0-13.8,0-20.6c-1.4,0-2.8,0-4.3,0c0-1.6,0-3.3,0-4.9c1.4,0,2.8,0,4.2,0c0.1-2.2-0.2-4.4,0.4-6.5
			C274.5,35.5,275.7,33.8,277.4,32.7L277.4,32.7z"/>
		<path class="st2" d="M146.4,33.1c1.2-0.2,2.6,0.2,3.4,1.2c1,1.1,1.1,2.7,0.4,4c-0.8,1.4-2.5,2-4.1,1.7s-2.9-1.8-2.8-3.4
			C143.3,34.8,144.7,33.3,146.4,33.1L146.4,33.1z"/>
		<path class="st2" d="M99.5,33.9c3,0,5.9,0,8.9,0c2.8,7,5.6,14.1,8.3,21.1c0.7,1.8,1.4,3.5,2.1,5.3c3.6-8.8,7.2-17.6,10.7-26.4
			c2.9,0,5.7,0,8.6,0c0,11.9,0,23.8,0,35.7c-2.1,0-4.1,0-6.2,0c0-8.8,0-17.6,0-26.3c0-0.4,0-0.8,0-1.2c-0.1,0.2-0.2,0.4-0.3,0.6
			c-3.5,9-7.1,17.9-10.7,26.9c-1.5,0.1-2.9,0-4.4,0c-3.6-9-7.2-18-10.9-27c-0.1-0.2-0.2-0.4-0.3-0.5c-0.1,3.8,0,7.7,0,11.5
			c0,5.3,0,10.6,0,16c-1.9,0-3.9,0-5.8,0C99.5,57.6,99.5,45.7,99.5,33.9L99.5,33.9z"/>
		<path class="st2" d="M163.3,43.9c3-0.8,6.1-0.8,9.1,0c0.6,0.2,1.2,0.4,1.7,0.7c0,1.9,0,3.9,0,5.8c-2-1.5-4.5-2.5-7-2.1
			c-2,0.2-3.9,1.2-5.1,2.8c-1.5,2-1.9,4.6-1.6,7.1c0.2,1.9,1,3.8,2.5,5.1c1.5,1.4,3.7,1.9,5.7,1.7s3.9-1.1,5.5-2.3
			c0,1.8,0,3.7,0,5.5c-2.5,1.5-5.5,1.9-8.4,1.7c-2.9-0.2-5.8-1.3-8-3.3c-2.3-2.2-3.6-5.4-3.7-8.6c-0.1-3.3,0.5-6.7,2.4-9.5
			C158.1,46.4,160.6,44.7,163.3,43.9L163.3,43.9z"/>
		<path class="st2" d="M204.7,43.5c2.9-0.4,6-0.2,8.8,1c2.4,1.1,4.3,3,5.3,5.4c1.1,2.5,1.4,5.3,1.2,8.1c-0.2,2.7-1,5.3-2.7,7.4
			c-1.7,2.2-4.3,3.8-7,4.3c-2.4,0.5-4.8,0.5-7.2,0c-2.8-0.6-5.4-2.2-7.1-4.6c-1.9-2.8-2.5-6.3-2.2-9.5c0.2-2.8,1-5.6,2.8-7.8
			C198.6,45.3,201.6,43.9,204.7,43.5L204.7,43.5z"/>
		<path class="st2" d="M230.1,43.5c2.8-0.5,5.8-0.1,8.5,0.9c0,1.9,0,3.7,0,5.6c-1.9-1.3-4.2-2-6.4-1.9c-1.1,0-2.4,0.5-2.9,1.6
			c-0.4,1.1-0.1,2.5,0.9,3.1c1.7,1.2,3.8,1.7,5.6,2.7c1.4,0.8,2.8,1.8,3.5,3.3c1.3,2.8,0.8,6.5-1.6,8.6c-2.3,2.1-5.5,2.7-8.5,2.6
			c-2.1-0.1-4.3-0.6-6.2-1.4c0-2,0-3.9,0-5.9c1.6,1.2,3.5,2,5.6,2.4c1.4,0.2,2.9,0.2,4.2-0.4c1.2-0.6,1.5-2.4,0.7-3.5
			c-0.7-0.8-1.7-1.3-2.7-1.7c-1.8-0.8-3.7-1.5-5.3-2.7c-1.1-0.9-2-2.1-2.3-3.5c-0.5-2-0.3-4.3,0.8-6.1
			C225.4,45.2,227.7,44,230.1,43.5L230.1,43.5z"/>
		<path class="st2" d="M187.8,44.4c1.7-1,3.8-1.1,5.7-0.5c0,2,0,4.1,0,6.1c-1.2-0.8-2.7-1.1-4.1-1c-1.7,0.2-3.1,1.5-3.8,3.1
			c-0.8,1.6-0.9,3.5-0.9,5.2c0,4.1,0,8.2,0,12.2c-2,0-4,0-6,0c0-8.5,0-17,0-25.6c2,0,4,0,6,0c0,1.5,0,2.9,0,4.4
			C185.3,46.8,186.3,45.2,187.8,44.4L187.8,44.4z"/>
		<path class="st2" d="M143.9,44c2,0,4.1,0,6.1,0c0,8.5,0,17,0,25.6c-2,0-4.1,0-6.1,0C143.9,61,143.9,52.5,143.9,44L143.9,44z"/>
		<path class="st3" d="M206.5,48.4c1.8-0.1,3.8,0.4,5.1,1.7c1.4,1.4,2,3.4,2.1,5.3c0.1,2.1,0,4.3-0.9,6.2c-0.6,1.3-1.7,2.4-3,3
			c-1.6,0.6-3.4,0.6-5,0.2c-1.7-0.4-3.1-1.6-3.8-3.2c-1-2-1.1-4.2-0.9-6.4c0.2-2,0.9-4,2.4-5.3C203.6,48.9,205.1,48.4,206.5,48.4
			L206.5,48.4z"/>
		<path class="st2" d="M267.8,50.7c-0.9-2.5-2.8-4.7-5.3-5.9c-2.8-1.4-6-1.6-9.1-1.2c-2.5,0.3-4.9,1.3-6.8,2.9c-2.3,2-3.6,4.9-4,7.9
			s-0.2,6.1,1,8.9c1.2,2.7,3.5,4.9,6.2,6s5.8,1.2,8.6,0.7c2.9-0.5,5.7-2,7.5-4.4c1.9-2.4,2.8-5.6,2.8-8.7
			C268.8,54.7,268.6,52.6,267.8,50.7z M262.3,59.3c-0.2,1.3-0.7,2.7-1.6,3.8s-2.2,1.7-3.6,1.9c-1.5,0.2-3,0.1-4.4-0.5
			c-1.5-0.6-2.6-1.9-3.2-3.4c-0.7-1.8-0.9-3.7-0.7-5.6c0.1-1.8,0.7-3.7,1.9-5.1c1.1-1.3,2.8-2,4.5-2.1c1.7-0.1,3.6,0.3,4.9,1.4
			c1.2,1,1.9,2.5,2.2,4.1C262.6,55.7,262.6,57.5,262.3,59.3z"/>
		<path class="st4" d="M22.3,53.1c9.4,0,18.9,0,28.3,0c0,9.4,0,18.9,0,28.3H22.3V53.1L22.3,53.1z"/>
		<path class="st5" d="M53.5,53.1c9.4,0,18.9,0,28.3,0c0,9.4,0,18.9,0,28.3H53.5C53.5,72,53.5,62.6,53.5,53.1L53.5,53.1z"/>
	</g>
</g>
</svg>
