<?xml version="1.0" encoding="utf-8"?>
<!-- Generator: Adobe Illustrator 19.2.1, SVG Export Plug-In . SVG Version: 6.00 Build 0)  -->
<svg version="1.1" id="Layer_1" xmlns="http://www.w3.org/2000/svg" xmlns:xlink="http://www.w3.org/1999/xlink" x="0px" y="0px"
	 viewBox="0 0 322 103" style="enable-background:new 0 0 322 103;" xml:space="preserve">
<style type="text/css">
	.st0{fill:#ED2517;}
</style>
<g id="Netflix">
	<g>
		<path class="st0" d="M73,18.3c-3.4,0-7,0-10.4,0c0,14.2,0,23.3-0.1,37.5c-4.5-13.8-9-23-13.4-37.5c-3.8,0-6.2,0-10,0
			c0,22.1,0,44.2,0,66.4c3.4-0.5,7-0.9,10.4-1.4c0-13.9,0-22.4,0-36.3c4.6,13.7,7.5,21.7,12.1,34.7c3.6-0.4,7.6-0.9,11.3-1.3
			C73,59.7,73,39,73,18.3"/>
		<path class="st0" d="M111.9,18.3c-9.7,0-19.2,0-28.8,0C83,38.7,83,59.1,83,79.5c9.6-0.9,19.3-1.6,29-2.2c0-3,0-7.3,0-10.3
			c-6.3,0.4-12.3,0.8-18.6,1.2c0-5.5,0-10,0-15.5c4.6-0.1,9.4,0,14.1-0.1c0-3,0-7.3,0-10.3c-4.6,0.1-9.5,0.1-14.1,0.2
			c0-5.5,0-8.5,0-14c2.9,0,5.7,0,8.5,0c0.5,0,1,0,1.5,0s1,0,1.5,0c2.3,0,4.7,0,7.1,0C112,25.6,111.9,21.3,111.9,18.3"/>
		<path class="st0" d="M150.8,18.4c-10.6,0-21.5,0-32.1,0c0,3,0,7.2,0,10.2c0.5,0,0.9,0,1.4,0c1.4,0,2.8,0,4.2,0c1.4,0,2.8,0,4.2,0
			c0.4,0,0.7,0,1.1,0c0,16.5,0,31.5-0.1,47.9c3.4-0.1,7-0.2,10.4-0.3c0-16.4,0-31.3,0-47.7c3.6,0,7.3,0,10.9,0
			C150.8,25.6,150.8,21.3,150.8,18.4"/>
		<path class="st0" d="M186.5,18.3c-9.7,0-19.3,0-29,0c0,19.2,0,38.4,0,57.6c1.1,0,2.3,0,3.4,0c2.3,0,4.6,0,6.9,0
			c0-8.2,0-15.6,0-23.7c0.6,0,1.1,0,1.7,0c1.3,0,2.7,0,4.1,0c1.4,0,2.8,0,4.1,0c1.4,0,2.8,0,4.2,0c0-2.9,0-7.3,0-10.2
			c-1.3,0-2.6,0-3.9,0c-1.4,0-2.9,0-4.3,0c-1.4,0-2.9,0-4.3,0c-0.5,0-1.1,0-1.6,0c0-5.2,0-8.2,0-13.4c1.1,0,2.3,0,3.4,0
			c1.1,0,2.3,0,3.4,0c1.1,0,2.3,0,3.4,0c2.8,0,5.6,0,8.4,0C186.5,25.7,186.5,21.2,186.5,18.3"/>
		<path class="st0" d="M193.3,18.4c0,19.4-0.1,38.8,0,58.2c9.3,0.3,19,0.7,28.2,1.4c0-3,0-7.3,0-10.3c-5.9-0.3-11.9-0.8-17.8-1
			c0-16.6,0.1-31.7,0-48.3C200.3,18.4,196.7,18.4,193.3,18.4"/>
		<path class="st0" d="M230,18.4c0,20.1,0.1,40.1,0.1,60.2c3.4,0.3,6.9,0.5,10.3,0.8c0-20.3,0-40.7,0-61
			C237,18.4,233.4,18.4,230,18.4"/>
		<path class="st0" d="M249.3,18.4c4.2,10.1,8,20.3,12.2,31.1c-4.4,10.3-8.9,20.6-13.3,30.5c3.6,0.4,7.4,0.9,11,1.3
			c2.6-6.4,5-11.3,7.6-17.9c2.6,7,5,12.4,7.6,19.6c3.6,0.5,8.3,1.1,12,1.7c-4.4-11.7-9.2-24-13.6-35.1c4.4-10.4,8.9-20.4,13.5-31.3
			c-3.8,0-7.6,0-11.4,0c-2.8,6.7-4.8,11.1-7.5,17.5c-2.5-6.7-4.2-11-6.7-17.5C257,18.4,253.1,18.4,249.3,18.4"/>
	</g>
</g>
</svg>
