<?xml version="1.0" encoding="utf-8"?>
<!-- Generator: Adobe Illustrator 20.0.0, SVG Export Plug-In . SVG Version: 6.00 Build 0)  -->
<svg version="1.1" id="Layer_1" xmlns="http://www.w3.org/2000/svg" xmlns:xlink="http://www.w3.org/1999/xlink" x="0px" y="0px"
	 viewBox="0 0 322 103" style="enable-background:new 0 0 322 103;" xml:space="preserve">
<style type="text/css">
	.st0{fill:#990000;}
	.st1{fill:#CCCC99;}
	.st2{fill:#660000;}
	.st3{fill:#999966;}
</style>
<g id="Open_Table">
	<g>
		<g>
			<g>
				<path class="st0" d="M145.1,65.2c-5,0-8.3-3.8-8.3-8.1V39c0-4.2,3.3-8.1,8.3-8.1c4.9,0,8.1,3.9,8.1,8.1v18
					C153.3,61.4,150,65.2,145.1,65.2z M149.5,39c0-2.3-1.6-4.6-4.4-4.6c-2.8,0-4.4,2.3-4.4,4.6v18c0,2.3,1.7,4.6,4.5,4.6
					s4.4-2.3,4.4-4.6V39H149.5z"/>
				<path class="st0" d="M167.9,65.2c-1.9,0-3-0.5-3.9-0.9c-0.4-0.1-0.6,0.1-0.6,0.4v8.8c0,0.3-0.3,0.6-0.6,0.6h-2.6
					c-0.4,0-0.6-0.3-0.6-0.6V49.1c0-4.3,3.4-8.1,8.3-8.1c4.9,0,8.1,3.9,8.1,8.1V57C176,61.3,172.8,65.2,167.9,65.2z M172.2,49.1
					c0-2.3-1.6-4.6-4.4-4.6c-2.8,0-4.5,2.3-4.5,4.6V57c0,2.3,1.6,4.6,4.4,4.6c2.9,0,4.4-2.3,4.4-4.6v-7.9H172.2z"/>
				<path class="st0" d="M197,54.7h-10.8c-0.4,0-0.7,0.3-0.7,0.7v1.7c0,2.3,1.7,4.6,4.5,4.6s4.3-2.1,5.1-3.3
					c0.2-0.3,0.6-0.4,0.9-0.2l1.7,1.2c0.7,0.5,0.5,0.8,0.4,1.1c-0.7,1.4-3.2,4.8-8,4.8c-5,0-8.3-3.8-8.3-8.1v-7.9
					c0-4.2,3.3-8.1,8.3-8.1c4.9,0,8.1,3.9,8.1,8.1v4.5C198.1,54.2,197.5,54.7,197,54.7z M185.6,49.1v1.7c0,0.4,0.3,0.6,0.7,0.6h7.5
					c0.3,0,0.7-0.3,0.7-0.6v-1.7c0-2.3-1.6-4.6-4.4-4.6C187.2,44.6,185.6,46.9,185.6,49.1z"/>
				<path class="st0" d="M219.8,64.7h-2.4c-0.4,0-0.7-0.3-0.7-0.7V49.1c0-2.3-1.5-4.6-4.4-4.6c-2.8,0-4.4,2.3-4.4,4.6V64
					c0,0.3-0.3,0.7-0.6,0.7h-2.5c-0.4,0-0.7-0.2-0.7-0.7V42.2c0-0.4,0.2-0.7,0.6-0.7h2.2c0.7,0,0.6,1,1.1,0.7
					c1.3-0.8,2.8-1.2,4.4-1.2c4.9,0,8.1,3.9,8.1,8.1V64C220.5,64.4,220.1,64.7,219.8,64.7z"/>
				<path class="st0" d="M238.3,35.1h-5c-0.4,0-0.6,0.3-0.6,0.7V64c0,0.3-0.3,0.7-0.7,0.7h-2.5c-0.3,0-0.7-0.3-0.7-0.7V35.8
					c0-0.3-0.4-0.6-0.7-0.6H223c-0.4,0-0.7-0.4-0.7-0.7v-2.1c0-0.3,0.3-0.6,0.7-0.6h15.1c0.3,0,0.6,0.3,0.6,0.6v2.1
					C239,34.8,238.7,35.1,238.3,35.1z"/>
				<path class="st0" d="M286.8,31.8h-2.5c-0.3,0-0.6,0.3-0.6,0.6V64c0,0.3,0.3,0.7,0.6,0.7h2.5c0.4,0,0.7-0.3,0.7-0.7V32.4
					C287.5,32.1,287.2,31.8,286.8,31.8z"/>
				<path class="st0" d="M254.7,64.7h-2.2c-0.8,0-0.5-1.2-1.3-0.6c0,0-1.5,1.1-4.1,1.1c-4.7,0-8.3-3.6-8.3-8.1
					c0-4.8,3.6-8.1,8.3-8.1c1.3,0,2.6,0.5,3.8,0.9c0.5,0.1,0.6-0.3,0.6-0.7c0-2.4-1.8-4.6-4.4-4.6c-2,0-3.3,0.5-4.3,1.1
					c-0.4,0.2-0.9,0.1-1.1-0.2l-1.1-1.9c-0.2-0.4,0-0.8,0.3-0.9c2-1.1,4-1.7,6.2-1.7c4.7,0,8.1,3.7,8.1,8.1V64
					C255.3,64.4,255,64.7,254.7,64.7z M247.1,52.5c-2.9,0-4.5,2.4-4.5,4.6c0,2.3,1.8,4.6,4.5,4.6c2.8,0,4.4-2.3,4.4-4.6
					C251.5,54.9,249.8,52.5,247.1,52.5z"/>
				<path class="st0" d="M269.8,41c-1.7,0-3.2,0.5-4.5,1.3v-10c0-0.3-0.3-0.7-0.6-0.7h-2.6c-0.3,0-0.6,0.3-0.6,0.7v24.8
					c0,4.3,3.3,8.1,8.3,8.1l0,0l0,0c0,0,0,0,0.1,0s0.2,0,0.3,0h0.1c0.1,0,0.2,0,0.3,0h0.1c0.8-0.1,1.4-0.2,2-0.5l0,0
					c0.1,0,0.2-0.1,0.3-0.1c3-1.3,4.9-4.2,4.9-7.5v-7.9C277.9,44.9,274.7,41,269.8,41z M265.3,49.1c0-2.3,1.6-4.6,4.4-4.6
					c2.9,0,4.4,2.3,4.4,4.6V57c0,1-0.3,2.1-0.9,2.9c-0.1,0.1-0.2,0.1-0.2,0.2c-0.1,0.2-0.4,0.5-0.8,0.8c-0.5,0.3-1,0.5-1.6,0.6l0,0
					c-0.1,0-0.1,0-0.2,0s-0.1,0-0.2,0h-0.1c-0.1,0-0.2,0-0.3,0c-2.7,0-4.4-2.3-4.4-4.6L265.3,49.1L265.3,49.1z"/>
				<path class="st0" d="M308.7,54.7h-10.8c-0.4,0-0.7,0.3-0.7,0.7v1.7c0,2.3,1.7,4.6,4.5,4.6s4.3-2.1,5.1-3.3
					c0.2-0.3,0.6-0.4,0.8-0.2l1.7,1.2c0.7,0.5,0.5,0.8,0.4,1.1c-0.7,1.4-3.2,4.8-8,4.8c-5,0-8.3-3.8-8.3-8.1v-7.9
					c0-4.2,3.3-8.1,8.3-8.1c4.9,0,8.1,3.9,8.1,8.1v4.5C309.8,54.2,309.2,54.7,308.7,54.7z M297.2,49.1v1.7c0,0.4,0.3,0.6,0.7,0.6
					h7.5c0.4,0,0.6-0.3,0.6-0.6v-1.7c0-2.3-1.6-4.6-4.4-4.6C298.9,44.6,297.2,46.9,297.2,49.1z"/>
				<g>
					<g>
						<g>
							<path class="st0" d="M312.3,41.5V41h2.5v0.5h-0.9v2.4h-0.6v-2.4H312.3z M316.6,41.1l0.7,2.1l0.7-2.1h0.8V44h-0.5v-2.3
								l-0.8,2.3H317l-0.8-2.3V44h-0.5v-2.9H316.6z"/>
						</g>
					</g>
				</g>
			</g>
		</g>
		<g>
			<path class="st0" d="M112.2,38.1v-0.2l0,0c-0.3-3.3-10-6-22-6s-21.7,2.7-22,6l0,0l0,0v0.2v3.4v0.1c0,3.4,9.9,6.2,22,6.2
				c12.2,0,22-2.8,22-6.2v-0.1V38.1z"/>
			<path class="st1" d="M56.8,45.1C56.8,45.1,56.8,45,56.8,45.1c0-4.5-11.7-8.1-26.1-8.1S4.6,40.6,4.6,45l0,0l0,0v4.5l0,0
				c0.1,4.4,11.7,8,26.1,8s26-3.6,26.1-8l0,0V45.1L56.8,45.1z"/>
			<path class="st1" d="M116.2,66.3v-0.4c-0.4-6.5-15.5-11.7-34-11.7s-33.5,5.2-34,11.7l0,0v0.4v5.2l0,0c0.4,6.5,15.5,11.7,34,11.7
				s33.5-5.2,34-11.7l0,0c0,0,0-0.3,0-0.4V66.3z"/>
			<path class="st1" d="M67,25.9c-0.2-2.2-8.4-4.1-18.6-4.1s-18.5,1.8-18.6,4.1l0,0v2.4l0,0c0.2,2.2,8.5,4,18.6,4
				c10.2,0,18.4-1.8,18.6-4l0,0V25.9L67,25.9z"/>
			<path class="st2" d="M112.2,41.6v-3.4c-0.2,3.4-9.9,6.1-22,6.1c-12,0-21.8-2.7-22-6.1v3.4v0.1c0,3.4,9.9,6.2,22,6.2
				C102.3,47.8,112.2,45.1,112.2,41.6L112.2,41.6z"/>
			<path class="st3" d="M56.8,45.1c-0.1,4.4-11.7,8-26.1,8s-26-3.6-26.1-8l0,0v4.5l0,0c0.1,4.4,11.7,8,26.1,8s26-3.6,26.1-8l0,0
				V45.1L56.8,45.1z"/>
			<path class="st3" d="M116.2,66.3c-0.1,6.6-15.3,11.8-34,11.8c-18.6,0-33.7-5.3-34-11.8c0,0,0,5,0,5.1v0.1l0,0
				c0.4,6.5,15.5,11.7,34,11.7s33.5-5.2,34-11.7l0,0V66.3z"/>
			<path class="st3" d="M48.4,30.1c-10.3,0-18.6-1.8-18.6-4.1v2.3l0,0c0.2,2.2,8.5,4,18.6,4c10.2,0,18.4-1.8,18.6-4l0,0V26
				C67,28.2,58.7,30.1,48.4,30.1z"/>
		</g>
	</g>
</g>
</svg>
