<?xml version="1.0" encoding="utf-8"?>
<!-- Generator: Adobe Illustrator 20.0.0, SVG Export Plug-In . SVG Version: 6.00 Build 0)  -->
<svg version="1.1" id="Layer_1" xmlns="http://www.w3.org/2000/svg" xmlns:xlink="http://www.w3.org/1999/xlink" x="0px" y="0px"
	 viewBox="0 0 322 103" style="enable-background:new 0 0 322 103;" xml:space="preserve">
<style type="text/css">
	.st0{fill:#D56764;}
	.st1{fill:#231F20;}
</style>
<g id="Walt_Disney">
	<g>
		<path class="st0" d="M131.3,40.9c0,0-12.4-6.8-22.8-3.6c0,0-0.6,0-1.3,0.8c-0.6,0.8-1.2,1.4-0.9,2.1c0.3,0.7,1.9,1,3.3,0.6
			c0,0,0.7-0.4-0.1-0.7c-0.8-0.3-1.2-0.4-1.2-0.4s-0.4-0.1,0-0.3s5.2-1.6,13.5,0.8c8.3,2.4,19.4,9.5,18.9,16.5s-11.5,7-11.5,7
			s-2.3,0-5.3-0.6c0-2.3,0-6.2,0.1-8.6c2.7,0.2,8.2,0.7,8.9,2c0,0,0.3,0.3-0.8,0.9c-0.8,0.5-1.6,0.7-0.8,1c0,0,1.1,0.7,1.7,0.5
			c0.6-0.2,2.4-0.8,2.7-2.7c0.2-1.9-2-3.8-5.3-4.4c-2.5-0.5-3.9-0.8-6.2-0.7c0-2.1-0.2-4.7-0.6-5.3c-0.6-0.8-1.2-1.9-1.7-0.7
			c-0.5,1.1-0.9,3.3-1.1,6.3c-3.6,0.5-7.5,1.9-8.7,3.3c-1.3,1.6-0.1,2.9,0,3.1c0.1,0.2,2.6,3.9,8.1,6.6c0.1,1,0.2,2.1,0.6,2.7
			c0.8,1.3,2.4,0.4,2.6,0.2c0.2-0.2,0.3-0.6,0.4-1.6c2.5,0.7,6.9,1.5,11.8,0.2c7.4-2,8.5-6.5,8.8-9.2
			C144.8,54.2,143,47.2,131.3,40.9L131.3,40.9z M124,54.4L124,54.4C124.5,54.4,124.4,54.4,124,54.4l-11.1,2.7c0,0-0.8-0.9,0.4-1.4
			c1.1-0.5,3.4-1.1,7.4-1.2c0,1.2-0.2,3.9-0.5,7.6c-2.6-1-5.3-2.5-7.4-5L124,54.4L124,54.4z"/>
		<path class="st0" d="M150.2,49.6c3-0.9,5.9-3.7,6-6s-2.5-2.4-2.5-2.4s0,0-0.1,0c-0.4-1.5-3.1-1.3-3.1-1.3c-5.5,0.3-7.4,4-7.6,5
			c-0.2,0.9-0.2,2.2,0.9,3.1c-0.3,0.8-0.1,1.2,0,1.4c0.1,0.3,0.6,1.1,1.1,1.1c0.4,0,0.7-0.3,1.1-1.1C147.1,50,148.3,50.2,150.2,49.6
			L150.2,49.6z M154,44.7c-1.6,3.1-5,3.1-6.9,2.7c1.3-1.8,4-4.1,5.7-4.3C154.8,42.8,154,44.7,154,44.7L154,44.7z M145.3,44.4
			c0.8-1.2,1.9-1.7,3.2-1.7c-1.7,1.1-2.9,2.6-3.6,3.5C144.7,45.8,144.7,45.3,145.3,44.4L145.3,44.4z"/>
		<path class="st0" d="M148.8,59.6c0,0-0.1-4.5-0.1-5.4c-0.1-0.9-0.4-1.4-0.6-1.8c-0.3-0.4-0.7-1-1.4-0.4s-0.8,4.3-1,7.3
			s-0.1,4.9,0.3,5.4c0.4,0.5,1.7,0.8,2.4,0.3c0.6-0.5,0.4-4.9,0.4-4.9L148.8,59.6L148.8,59.6z"/>
		<path class="st0" d="M185.5,63.4c0.2-0.6-0.4-1.4-1-1.6c-0.5-0.1-4.7,0.5-5.2,0.6S179,62,179,62l0.7-2.1c0,0,3.9,0,4.5-0.1
			s0.6-0.5,0.6-0.5s0.1-0.6,0.1-1.2c0-0.6-0.5-0.6-0.5-0.6c-1.5-0.2-3.6-0.1-3.6-0.1l0.5-1.7h0.3c2,0.1,4.8-0.2,5.5-0.4
			c0.8-0.2,0.4-1,0.4-1c-0.9-2-2.1-1.9-2.1-1.9c-3.4-0.2-8.1,0.6-8.6,0.8s-0.5,0.6,0.1,1.4c0.6,0.8,1.8,0.8,1.8,0.8l-1.1,2
			c-0.8,0-1.1,0.3-1.1,0.3c-0.5,0.5,0.1,2,0.1,2s-0.2,0.4-0.5,1.1c-0.2,0.7-1,1.9,0,3.8c0.9,1.9,2.4,1.7,2.4,1.7
			C181.2,66.7,185.3,64.3,185.5,63.4L185.5,63.4z M162.5,54.5l-1.5,0.1c-2.6,0.1-7.4,0.3-8.1,0.8c0,0-0.4,0.4,0.1,0.5
			s2.6,0.4,3.6,0.5s4.6,0.2,5.8,1.8c0,0,0.7,0.8,0.6,2.5c-0.1,1.7-0.4,2.4-1.1,3c-0.7,0.6-7,3.2-10.8-1.2c0,0-1.8-2.1,0.7-3.6
			c0,0,1.8-1,6.3,0.3c0,0,1.4,0.5,1.3,1.1c-0.1,0.5-1.2,1-2.7,1c-1.5-0.1-2.6-0.9-2.6-0.9s-1.4-0.7-1.9-0.1
			c-0.5,0.6-0.4,0.9,0.1,1.3c0.5,0.4,2.3,0.4,2.3,0.4s5.1-0.1,6-1.4c0,0,0.7-0.7-0.3-1.3c-0.9-0.6-3.7-1-4.7-1.1s-4.8-0.1-5.4-1.1
			c0,0-0.5-0.7,0.1-2.7s5.1-2.7,7.1-2.8c0,0,5.3,0,6.2,1.1c0,0,0.1,0.2,0,0.6C163.6,53.8,163.4,54.3,162.5,54.5L162.5,54.5z
			 M171.6,50.3c0,0-0.6-0.3-0.7,0.3c-0.2,0.6,0,1.2,0,1.2c1.3,5,1.6,7.9,1.6,7.9s0.1,0.8-0.1,0.9c-0.1,0.1-0.3,0-0.3,0
			c-0.1,0-1.7-2.7-1.7-2.7l-0.3-0.5c-1.7-2.9-2.7-3.9-2.7-3.9c-0.3-0.2-0.9-0.9-1.7,0s-1.5,3.7-1.8,6.4s-0.2,4.2,0.2,4.9
			c0.4,0.7,1.2,0.9,1.9,0.4s0.7-4.1,0.9-5.9c0.2-1.8,0.3-1.5,0.3-1.5c0.2,0,0.9,1.7,0.9,1.7s2.1,4.5,3.4,5.2c1.3,0.7,2.5-0.3,3-1.3
			c0.5-1,1.3-4.3,0.3-8C173.9,51.5,171.6,50.3,171.6,50.3L171.6,50.3z"/>
		<path class="st0" d="M198.6,54.2c-1.3-1-2.5-0.1-2.5-0.1c-2.3,1.2-5.2,4.7-6.8,6.8c-0.2-1.5,0.8-3.4,0.8-3.4l0.3-0.4
			c1.3-2.1,1.5-2.4,1.7-2.9c0.3-0.6,0.4-1.8,0.1-1.9c-0.3-0.1-0.7,0.3-0.7,0.3c-3.8,3.2-4.4,6.8-4.4,6.8c-0.4,1.9-0.1,3.3,0.5,4.2
			c-2.2,4.5-3,8.8-3,10.5c0,1.8,1.4,3,2.1,3.3c0.7,0.3,0.9-0.6,0.9-0.6c0.8-4.6,1.9-7.7,3.2-10.7c3.8,1,6.9-2.9,7.9-4.5
			c1.1-1.7,1.1-4,1.1-4C199.9,57.4,199.9,55.2,198.6,54.2L198.6,54.2z M195.9,61.5c-0.5,0.4-1.9,1.2-3.4,1.3
			c1.5-2.7,3.4-4.8,4.4-5.8c1.2-1.3,1.3-0.1,1.3-0.1C198.4,59.2,196.6,60.9,195.9,61.5L195.9,61.5z"/>
		<path class="st0" d="M89.5,48.2c-0.4,0-1-0.2-1.2,0.2c-0.1,0.3,0,0.4,0,0.4s-2.8,3.4-4.8,7.7c-0.5,0-0.9,0-1.4,0
			c0.8-2,1.3-4.3,1.4-6.8c0.5-9.9-6.8-14.8-6.8-14.8s-3.8-1.1-4-0.4c-0.3,0.7,2.9,0.9,2.9,0.9c5,4.2,4.6,12.1,4.6,12.1
			c-0.6,11.4-6.2,14.7-8.9,14.7c-1.6,0-2.5-1.1-3-2c2.1-1.7,3.6-3.8,4.3-4.9c1.3-2,1.5-3.7,1.5-3.7c0.8-6.2-2.6-6.4-2.6-6.4
			c-5.5,0-7.4,5.3-7.5,9.4c0,1.6,0.2,3.7,0.8,5.5c-1.6,0.7-3.6,1-4.5-1.1c-1.3-2.9-0.5-7.5,1-11.8c1.6-4.2,4.6-7.3,5.4-8
			c0.8-0.8,0.8-1.1,0.8-1.1c0.2-0.9-0.6-0.8-0.6-0.8c-1.6,0.4-4.1,2.6-4.1,2.6c-5.4,5-6.4,11.3-6.6,14.6c-0.2,3.4,1.1,7.9,6.1,7.9
			c1.1,0,2.2-0.3,3.1-0.7c1.1,2.1,3,3.8,5.8,3.8c4.2,0.1,8.5-3.1,10.8-8.7c0.1,0.3,0.4,0.8,0.9,1.3c-0.3,0.8-0.6,1.5-0.8,2.3
			c0,0-0.5,2,0.3,3c0,0,0.5,0.5,1.7,0.6c0,0,0.5,0.1,0.6-0.7c0.1-0.3,0.6-2,1.3-3.9c2.6,0.1,3.5,0.1,3.5,0.1s-0.3,2.3,0.5,3
			c0.8,0.6,1.4,1,1.5,1s0.5,0.3,0.6-0.3s0.5-10.1-2-14.5C90,48.7,89.9,48.3,89.5,48.2L89.5,48.2z M68.3,49.4
			c0.3-1.6,0.9-2.6,1.4-2.7c0.5-0.1,0.8,0.7,0.8,0.7c1,3.3-1.2,7.9-3,10.3C67.2,53.7,68,50.8,68.3,49.4L68.3,49.4z M87,56.6
			c0.6-1.6,1.3-2.9,1.8-3.4c0,0,0.4,1,0.5,3.5C89.3,56.6,88.4,56.6,87,56.6L87,56.6z"/>
		<path class="st0" d="M99.4,57.8c-0.9,0.4-2.6,1.3-3.7,1.5c0,0-0.4,0.1-0.4-0.4s0.3-4,1.7-7.8c0,0,0.5-1.3-0.2-2.1
			c0,0-0.5-0.8-1.1,0.1C95,49.9,93.9,52,93.1,55l-0.2,0.7c0,0-1.7,6.7,2,7.3s5.5-3.6,5.5-4.3C100.4,58.1,100.3,57.4,99.4,57.8
			L99.4,57.8z"/>
		<path class="st0" d="M107.2,49.2c0,0-1.9-0.5-3.9,2.5c-3.9-0.8-3.8-1.9-3.9-2.2s0.1-0.3-0.1-0.6c-0.2-0.2-0.6,0.2-0.6,0.2
			c-0.6,0.7-0.4,2.1-0.4,2.1c0.4,1.7,2.5,2.6,3.7,3c-1.4,3.5-1.5,7.6-1.4,9.4c0.1,2,2.1,3.7,3.1,3.5c1-0.1,0.7-2,0.7-2
			c-0.3-4.8,0.1-7.9,0.6-10.1c4.4,0.7,4.7-2.2,4.7-2.2C110.2,49.4,107.2,49.2,107.2,49.2L107.2,49.2z M108.1,51.2
			c-0.1,0.6-1.2,0.8-2.2,0.8c0.5-1,0.9-1.2,1.5-1.3C108.2,50.6,108.1,51.2,108.1,51.2L108.1,51.2z"/>
		<path class="st1" d="M15.1,62.3H6.2v-0.6c2.8-0.1,2.9-0.8,2.9-3.1V43.3H7.4c-3.4,0-4.2,0.6-4.9,3.9H1.8L2,42h17.3l0.2,5.2h-0.7
			c-0.6-3.4-1.5-3.9-4.9-3.9h-1.7V59c0,2.1,0.4,2.7,2.9,2.8L15.1,62.3L15.1,62.3z"/>
		<path class="st1" d="M34.9,62.3h-6.5v-0.5c1.5-0.2,2.1-0.3,2.1-2.7V53c0-2.1-0.7-3.2-2.4-3.2c-0.9,0-2.1,0.5-3.3,1.9v7.4
			c0,2.4,0.6,2.5,2.1,2.7v0.5h-6.6v-0.5c1.7-0.2,2-0.4,2-2.7V44.8c0-0.9,0-1.6-1.3-1.6c-0.2,0-0.5,0-0.6,0v-0.5
			c1.4-0.4,2.9-0.8,4.3-1.3l0.2,0.1v9.2H25c1.1-1.5,2.6-2.5,4.4-2.5c3.8,0,3.8,3.6,3.8,4.9v6.1c0,2.2,0.3,2.4,1.8,2.7v0.4H34.9z"/>
		<path class="st1" d="M48.3,57.5c-0.3,0.9-2.1,5.1-6.5,5.1c-3.4,0-5.7-2.5-5.7-6.9c0-5.7,3.8-7.5,6.2-7.5c2.9,0,5.1,1.6,5.4,5.6
			h-9.5c0.4,5.4,2.8,6.7,4.9,6.7c2.7,0,4-2.1,4.7-3.2L48.3,57.5L48.3,57.5z M44.6,52.9c-0.2-1.5-0.5-3.5-2.9-3.5
			c-1.7,0-2.9,0.8-3.4,3.5H44.6L44.6,52.9z"/>
		<path class="st1" d="M224.4,48.9c-0.8-3.2-3-5.7-6.7-5.7c-1.5,0-3.3,0.6-4.6,1.9c-1.2,1.2-2.5,3.1-2.5,7.5c0,6.5,3.6,9.2,7.5,9.2
			c3.8,0,6-2.2,6.9-3.1l0.5,0.6c0,0.1-2.7,3.9-8.3,3.9c-4.9,0-10.2-2.9-10.2-10.6c0-6.9,5.1-10.6,10.4-10.6c2.7,0,4.7,1,5.4,1
			c0.2,0,1.2,0,1.4-1h0.6l0.3,6.9L224.4,48.9L224.4,48.9z"/>
		<path class="st1" d="M240.3,55.7c0,3-2.1,7.3-6.8,7.3c-4,0-6.7-3.2-6.7-7.3c0-3.8,2.5-7.1,6.6-7.1
			C237.4,48.6,240.3,51.3,240.3,55.7L240.3,55.7z M237.5,56.6c0-3.8-1.6-7.1-4.4-7.1c-1.9,0-3.6,1.6-3.6,4.8c0,2.3,0.7,7.9,4.4,7.9
			C235.5,62.1,237.5,61,237.5,56.6L237.5,56.6z"/>
		<path class="st1" d="M243.2,52.3c0-1.9-0.6-2-1.1-2c-0.4,0-0.7,0.1-1,0.1V50c1.4-0.4,2.9-0.9,4.3-1.4l0.2,0.1V51
			c1.8-1.4,3.1-2.4,4.7-2.4c2,0,2.9,1.3,3.3,2.6c0.6-0.7,2.5-2.6,4.9-2.6c3.2,0,3.6,3.2,3.6,5.5v6.3c0,0.7,0,1.6,1.3,1.8l0.8,0.1
			v0.5h-6.7v-0.5c1.5-0.2,2-0.2,2-2.2v-6.5c0-1.6,0-3.4-2.2-3.4c-1.7,0-2.7,0.8-3.4,1.9v7.7c0,2.3,0.9,2.4,2.2,2.5v0.5h-6.9v-0.5
			c1.4-0.1,2.1-0.2,2.1-2.2v-6.6c0-2-0.5-3.2-2.1-3.2c-2.1,0-3.5,1.7-3.5,1.8v8.6c0,1.5,1,1.6,2.1,1.6v0.5H241v-0.5
			c1.2,0,2.1-0.1,2.1-2.1v-7.9H243.2z"/>
		<path class="st1" d="M266.7,52.4c0-1.2-0.1-1.7-1.2-1.7c-0.3,0-0.6,0-0.9,0v-0.5c1.5-0.5,2.9-1,4.4-1.6l0.2,0.1v2.2l0.1,0.1
			c0.6-0.9,2.1-2.4,4.4-2.4c2.7,0,5.1,2.5,5.1,6.6c0,3.5-2.2,7.8-6.4,7.8c-1.2,0-2.1-0.3-3.1-1.3v4.8c0,2,0.5,2.3,2.7,2.3v0.6h-7.4
			v-0.5c2-0.2,2.1-0.8,2.1-2.1L266.7,52.4L266.7,52.4z M269.3,60c0,0.7,1.4,2,3.1,2c1,0,3.8-0.6,3.8-5.9c0-0.7-0.2-5.7-3.9-5.7
			c-1.1,0-2.8,0.9-3,2V60L269.3,60z"/>
		<path class="st1" d="M292.9,61.5c-1.3,1.5-2.2,1.5-2.7,1.5s-1.8,0-2-2.2c-1.1,1-2.8,2.2-4.4,2.2c-1.7,0-3.2-1.1-3.2-3.2
			c0-3.1,2.7-4.1,7.7-6.1v-1.9c0-2.2-1.4-2.5-2.4-2.5s-2.2,0.6-2.2,1.5c0,0.5,0.2,0.9,0.2,1.2c0,0.6-0.6,1.3-1.4,1.3
			c-0.9,0-1.3-0.9-1.3-1.3c0-1.2,1.4-3.4,5-3.4c4.6,0,4.6,3.1,4.6,4.9v6c0,0.9,0,1.8,0.9,1.8c0.6,0,1-0.3,1.4-0.6v0.8H292.9z
			 M288.1,54.5c-4.6,1.5-5,3.2-5,4.3v0.1c0,1.4,0.9,2.4,2,2.4c0.7,0,1.6-0.4,1.9-0.6c1-0.5,1-0.8,1-1.7v-4.5H288.1z"/>
		<path class="st1" d="M295.4,52.3c0-1.9-0.6-2-1.1-2c-0.4,0-0.8,0.1-0.9,0.1V50c1.4-0.4,2.8-0.9,4.2-1.4l0.2,0.1v2.4
			c1.5-1.4,2.7-2.5,4.5-2.5c1.4,0,3.6,0.8,3.6,4.6v7c0,1.4,0.4,1.9,1.9,2v0.5h-6.4v-0.5c1.1-0.1,1.9-0.2,1.9-2.6v-6.4
			c0-1.9-0.6-3-2.4-3c-0.9,0-1.9,0.6-3,1.7v8.6c0,1,0.4,1.5,2,1.6v0.5h-6.5v-0.5c1.4-0.1,1.9-0.5,1.9-2.3L295.4,52.3L295.4,52.3z"/>
		<path class="st1" d="M321,49.4c-0.4,0.1-1,0.1-1.5,1.4l-4.7,12.5c-1.6,4.1-2.9,6.1-5.2,6.1c-1.5,0-2.2-1-2.2-1.8
			c0-0.2,0.1-1.3,1.5-1.3c0.8,0,1.8,0.6,2.2,0.6c1.6,0,2.8-4.2,2.8-4.7s-1.5-3.3-1.9-4.2l-3.5-7.5c-0.4-0.8-1.2-0.9-1.6-1v-0.4h6.3
			v0.5c-0.7,0-1.8,0.1-1.8,0.9c0,0.4,0.2,0.9,0.3,1.1l3.5,7.7l2.4-6.8c0.3-0.8,0.7-1.8,0.7-2.1c0-0.6-0.5-0.9-1.5-0.9V49h4.1v0.4
			H321z"/>
	</g>
</g>
</svg>
