<?xml version="1.0" encoding="utf-8"?>
<!-- Generator: Adobe Illustrator 20.0.0, SVG Export Plug-In . SVG Version: 6.00 Build 0)  -->
<svg version="1.1" id="Layer_1" xmlns="http://www.w3.org/2000/svg" xmlns:xlink="http://www.w3.org/1999/xlink" x="0px" y="0px"
	 viewBox="0 0 322 103" style="enable-background:new 0 0 322 103;" xml:space="preserve">
<style type="text/css">
	.st0{fill:#53B50A;}
	.st1{fill:#40455F;}
</style>
<g id="Trulia">
	<circle class="st0" cx="223.3" cy="27.1" r="5.9"/>
	<path class="st1" d="M107.5,80.9c-8.6,0-12.8-4.9-12.8-13.1V46.2h-7.8v-8.4h7.8V27l10.2-2.5v13.3h10.7v8.4h-10.7v20.7
		c0,3.3,1.5,4.7,4.7,4.7c2.1,0,3.8-0.1,6.6-0.4v8.6C113.4,80.5,110.6,80.9,107.5,80.9z"/>
	<path class="st1" d="M144,46.9c-7.2,0-11,5.2-11,12v21.4h-10.3V37.8h8.7l0.9,6.4c2-4.9,7-7,12-7c1.1,0,2.1,0.1,3.2,0.2v9.8
		C146.4,47.1,145.2,46.9,144,46.9z"/>
	<path class="st1" d="M180.8,80.3l-0.7-5.6c-2,4.2-6.8,6.6-12.2,6.6c-9.1,0-14.7-6.1-14.7-15.2V37.8h10.2v26.1c0,5,2,8.1,7.4,8.1
		c2.4,0,4-0.9,5.2-2.1c2.5-2.3,3.1-6.1,3.1-9.6V37.8h10.2v42.5H180.8z"/>
	<path class="st1" d="M207.6,80.8c-7,0-11.6-3.4-11.6-11.4V21.2h10.3v46.5c0,2.5,0.6,4.1,4.1,4.1c0.9,0,1.1-0.1,1.7-0.1v8.6
		C210,80.7,209.6,80.8,207.6,80.8z"/>
	<path class="st1" d="M218.1,80.3V37.8h10.4v42.5H218.1z"/>
	<path class="st1" d="M269.1,81c-4.4,0-6.9-2.8-7.2-6c-2,3.4-6.9,6.4-12.9,6.4c-10.1,0-15.4-6.4-15.4-13.3c0-8.1,6.3-12.8,14.4-13.3
		l12.5-0.9v-2.6c0-4-1.4-6.7-7.2-6.7c-4.7,0-7.5,2.1-7.8,6.1h-9.9c0.6-9.6,8.2-13.8,17.7-13.8c7.3,0,13.5,2.3,15.9,8.7
		c1.1,2.7,1.2,5.7,1.2,8.6V70c0,2,0.7,2.7,2.4,2.7c0.7,0,1.3-0.2,1.3-0.2V80C272.5,80.6,271.6,81,269.1,81z M260.5,61.4l-10.8,0.8
		c-3.1,0.2-6.1,2.1-6.1,5.6c0,3.3,2.9,5.3,6.1,5.3c6.4,0,10.9-3.4,10.9-9.7L260.5,61.4L260.5,61.4z"/>
	<g>
		<path class="st0" d="M63.2,21.2c-9.4,0.1-15.4,6.4-15.4,15.9c0,7.9,5.1,14.6,8.1,24.9c1.7,5.9,2.6,13.1,3.1,18.4h8.6
			c0.4-5.4,1.3-12.6,3-18.4c2.9-10.3,8.1-17,8.1-24.9C78.7,27.6,72.6,21.3,63.2,21.2z M63.3,45.5c-3.9,0-7.1-3.2-7.1-7.1
			s3.2-7.1,7.1-7.1s7.1,3.2,7.1,7.1S67.2,45.5,63.3,45.5z"/>
	</g>
</g>
</svg>
