<svg xmlns="http://www.w3.org/2000/svg" xmlns:xlink="http://www.w3.org/1999/xlink" viewBox="0 0 322 100"><style>.st0{display:none}</style><switch><g><image width="560" height="420" xlink:href="../revolve-clothing.jpg" transform="translate(-118 -159)" overflow="visible" id="Layer_3" class="st0"/><g id="Layer_1"><path d="M166.5 73.2c-12.9.4-22.7-10.1-22.7-22.6 0-12.1 9.7-22.7 22.8-22.6 11.7.1 22.3 9.4 22.3 22.7.1 13-10.5 22.9-22.4 22.5zm-.2-38.1c-8 0-14.5 6.9-14.5 15.5 0 8.7 6.6 15.7 14.7 15.6 8 0 14.5-6.9 14.5-15.5.1-8.5-6.6-15.6-14.7-15.6zM87.3 47.1v7.1L61.5 54v11.5l25.6-.1v7.2H53.7v-44h33.6v7.3l-25.8-.1.1 11.3zM6.3 28.6H32c5.8.5 9.7 5.3 10.7 10 1.5 6.6-.2 12.6-5.6 15.4-1.6.7-3.3 1.2-5.5 1.4L44 72.6h-9.6L18.8 50.3s5.9.1 8-.1c5-.4 7.8-3 7.8-7.3.1-4.4-2.3-6.8-7.5-7.1-3.2-.2-12.9-.1-12.9-.1l.1 36.9h-8v-44zM95.4 28.6h8.7l13.2 33.2 13.1-33.2h8.5c-1.5 3.6-3.1 7.6-4.5 11.1l-12.7 32.8h-8.8L95.4 28.6zM199.9 28.6h8.4v36.6l23.2.1v7.3h-31.6v-44zM230 28.7h8.7l13.2 33.2L265 28.7h8.5c-1.5 3.6-3.1 7.6-4.5 11.1l-12.7 32.8h-8.8L230 28.7zM316.2 47.2v7l-25.8-.1-.1 11.4 25.7-.1v7.2h-33.5V28.7h33.7v7.2l-25.8-.1v11.4z"/></g></g></switch></svg>