<?xml version="1.0" encoding="utf-8"?>
<!-- Generator: Adobe Illustrator 18.1.0, SVG Export Plug-In . SVG Version: 6.00 Build 0)  -->
<svg version="1.1" id="Layer_1" xmlns="http://www.w3.org/2000/svg" xmlns:xlink="http://www.w3.org/1999/xlink" x="0px" y="0px"
	 viewBox="76.5 255 612 612" enable-background="new 76.5 255 612 612" xml:space="preserve">
<path fill="#B4B7B9" d="M382.5,255c-169.1,0-306,136.8-306,306s136.9,306,306,306s306-136.9,306-306
	C689.7,391.8,551.6,255,382.5,255z M464.8,559.8h-53.6c0,84.7,0,189.1,0,189.1h-78.4c0,0,0-103.2,0-189.1h-37.3v-67.1h37.3v-43.6
	c0-31.1,14.9-79.6,79.6-79.6h58.5v64.7c0,0-34.9,0-42.3,0c-7.6,0-16.1,3.7-16.1,18.5v39.7h59.7L464.8,559.8z"/>
</svg>
