<?xml version="1.0" encoding="utf-8"?>
<!-- Generator: Adobe Illustrator 18.1.0, SVG Export Plug-In . SVG Version: 6.00 Build 0)  -->
<svg version="1.1" id="Layer_1" xmlns="http://www.w3.org/2000/svg" xmlns:xlink="http://www.w3.org/1999/xlink" x="0px" y="0px"
	 viewBox="87.8 256.5 612 612" enable-background="new 87.8 256.5 612 612" xml:space="preserve">
<g>
	<path fill="#B4B7B9" d="M337.9,540.1c7.6,0,14.9-2.4,20-8.8c7.6-8.8,11.2-23.6,10-39.7c-3.7-28.5-23.6-52.3-44.7-52.3h-1.6
		c-7.6,0-13.7,2.4-20,8.8c-7.6,8.8-11.2,23.6-8.8,38.5C295.5,514,316.7,538.9,337.9,540.1L337.9,540.1z"/>
	<path fill="#B4B7B9" d="M360.2,624.8c-2.4-1.2-3.7-2.4-6.1-4.9c-6.1-2.4-13.7-2.4-21.2-3.7h-1.2c-32.4-0.3-60.9,19.7-60.9,42.3
		c0,24.9,24.9,43.6,55.9,43.6c41.1,0,62.3-13.7,62.3-42.3c0-2.4,0-4.9-1.2-8.8C385,642.1,375.3,636,360.2,624.8z"/>
	<path fill="#B4B7B9" d="M393.8,256.5c-169.1,0-306,136.9-306,306s136.9,306,306,306s306-136.9,306-306S563,256.5,393.8,256.5z
		 M366.5,729.2c-12.4,3.7-24.9,4.9-39.7,4.9c-14.9,0-29.7-1.2-43.6-4.9c-26.1-6.1-46.1-20-55.9-36.1c-3.7-7.6-6.1-14.9-6.1-22.4
		c0-8.8,2.4-16.1,6.1-24.9c14.9-31.1,53.5-52.3,95.9-52.3h1.2c-3.7-6.1-4.9-12.4-4.9-18.5c0-3.7,0-6.1,1.2-10
		c-44.7-1.2-78.4-33.6-78.4-77.1c0-31.1,24.9-60.9,59.7-72.3c10-3.7,21.2-4.9,31.1-4.9h95.9c3.7,0,6.1,2.4,7.6,4.9
		c1.2,3.7,0,6.1-2.4,8.8l-21.2,14.9c-1.2,1.2-2.4,1.2-4.9,1.2h-7.6c10,12.4,16.1,28.5,16.1,47.1c0,21.2-11.2,41.1-29.7,55.9
		c-14.9,11.2-14.9,14.9-14.9,21.2c0,3.7,11.2,16.1,22.4,23.6c27.3,18.5,37.3,37.3,37.3,68.4C428.7,689.4,405,718,366.5,729.2z
		 M583,563.7c0,3.7-3.7,7.6-7.6,7.6h-54.7V626c0,3.7-3.7,7.6-7.6,7.6h-14.9c-3.7,0-7.6-3.7-7.6-7.6v-54.7h-54.7
		c-3.7,0-7.6-3.7-7.6-7.6v-14.9c0-3.7,3.7-7.6,7.6-7.6h54.9v-54.7c0-3.7,3.7-7.6,7.6-7.6h14.9c3.7,0,7.6,3.7,7.6,7.6v54.7h54.7
		c3.7,0,7.6,3.7,7.6,7.6v14.9H583z"/>
</g>
</svg>
