<?xml version="1.0" encoding="utf-8"?>
<!-- Generator: Adobe Illustrator 18.1.1, SVG Export Plug-In . SVG Version: 6.00 Build 0)  -->
<!DOCTYPE svg PUBLIC "-//W3C//DTD SVG 1.1//EN" "http://www.w3.org/Graphics/SVG/1.1/DTD/svg11.dtd">
<svg version="1.1" id="Layer_1" xmlns="http://www.w3.org/2000/svg" xmlns:xlink="http://www.w3.org/1999/xlink" x="0px" y="0px"
	 viewBox="0 0 25 25" enable-background="new 0 0 25 25" xml:space="preserve">
<path fill="#B4B7B9" d="M12.5,0C5.6,0,0,5.6,0,12.5S5.6,25,12.5,25S25,19.4,25,12.5S19.4,0,12.5,0z M9.1,18.7H6.5v-8.3h2.6V18.7z
	 M7.8,9.3c-0.8,0-1.5-0.7-1.5-1.5c0-0.8,0.7-1.5,1.5-1.5c0.8,0,1.5,0.7,1.5,1.5C9.3,8.6,8.6,9.3,7.8,9.3z M18.7,18.7h-2.6v-4
	c0-1,0-2.2-1.3-2.2c-1.3,0-1.6,1.1-1.6,2.1v4.1h-2.6v-8.3h2.5v1.1h0c0.3-0.7,1.2-1.3,2.4-1.3c2.6,0,3.1,1.7,3.1,4V18.7z"/>
</svg>
