<?xml version="1.0" encoding="utf-8"?>
<!-- Generator: Adobe Illustrator 18.1.0, SVG Export Plug-In . SVG Version: 6.00 Build 0)  -->
<svg version="1.1" id="Layer_1" xmlns="http://www.w3.org/2000/svg" xmlns:xlink="http://www.w3.org/1999/xlink" x="0px" y="0px"
	 viewBox="76.5 256.5 612 612" enable-background="new 76.5 256.5 612 612" xml:space="preserve">
<path fill="#B4B7B9" d="M382.5,256.5c-169.1,0-306,136.9-306,306s136.9,306,306,306s306-136.9,306-306
	C689.7,393.4,551.6,256.5,382.5,256.5z M538,500.2c0,3.7,0,6.1,0,10c0,102-77.1,220.1-220.1,220.1c-43.6,0-84.7-12.4-118.1-34.9
	c6.1,1.2,12.4,1.2,18.5,1.2c36.1,0,69.7-12.4,95.9-33.6c-33.6-1.2-62.3-22.4-72.3-53.5c4.9,1.2,10,1.2,14.9,1.2
	c7.6,0,13.7-1.2,20-2.4c-34.9-7.6-62.3-38.5-62.3-75.9v-1.2c10,6.1,22.4,8.8,34.9,10c-21.2-13.7-34.9-37.3-34.9-64.7
	c0-13.7,3.7-27.3,10-38.5c38.5,47.1,94.4,77.1,159.1,80.8c-1.2-6.1-2.4-11.2-2.4-17.6c0-42.3,34.9-77.1,77.1-77.1
	c22.4,0,42.3,10,55.9,24.9c17.6-3.7,33.6-10,48.5-18.5c-6.1,18.5-17.6,33.6-33.6,42.3c16.1-1.2,31.1-6.1,44.7-12.4
	C565.3,475.4,553,489,538,500.2z"/>
</svg>
